<svg width="36" height="48" viewBox="0 0 36 48" fill="none" xmlns="http://www.w3.org/2000/svg">
<path fill-rule="evenodd" clip-rule="evenodd" d="M4.5 2C4.5 0.895431 5.39543 0 6.5 0H28.5C29.6046 0 30.5 0.895431 30.5 2C30.5 3.10457 29.6046 4 28.5 4H28.0001C28.0002 4.08359 27.9793 4.16834 27.9351 4.24628C27.2101 5.52726 26.3293 7.76142 26.0731 10.2512C25.8183 12.7272 26.1846 15.409 27.8785 17.6714L28.3536 18.1464C28.5488 18.3417 28.5488 18.6583 28.3536 18.8536L26.7071 20.5L28.3536 22.1464C28.429 22.2219 28.4784 22.3196 28.4944 22.4251L28.8844 25H31C31.1894 25 31.3625 25.107 31.4472 25.2764L32.7678 27.9177L34.3787 27.5149C34.6213 27.4543 34.8714 27.5822 34.9642 27.8143C35.3986 28.9001 35.5661 30.4327 35.6122 31.8588C35.6589 33.3 35.5828 34.6971 35.4975 35.5498C35.4964 35.5606 35.495 35.5714 35.4932 35.5822C34.2653 42.9498 29.8533 46.5611 27.6923 47.4615C27.6314 47.4869 27.566 47.5 27.5 47.5H7.5C7.40747 47.5 7.31676 47.4743 7.23795 47.4258C4.96052 46.0243 3.3472 44.1445 2.23198 42.254C0.71019 39.6743 0.102376 37.0523 0.00110877 35.5333C-0.008482 35.3894 0.0444964 35.2484 0.146448 35.1464L3.41332 31.8796L2.53576 29.6857C2.47461 29.5328 2.49265 29.3596 2.58398 29.2227L3.41256 27.9798L1.56588 24.7481C1.50191 24.6361 1.48366 24.5038 1.51493 24.3787C1.63906 23.8822 1.9766 23.3055 2.38656 22.7302C2.80604 22.1415 3.33858 21.5039 3.90379 20.8775C5.03029 19.6291 6.31256 18.3966 7.15558 17.6373C7.51301 17.2789 7.8247 16.9118 8.09511 16.5386C9.58421 14.4833 9.85354 12.1952 9.52678 10.0762C9.15832 7.6867 8.03473 5.54631 7.1 4.3C7.03246 4.20995 6.99989 4.10452 6.99997 4H6.5C5.39543 4 4.5 3.10457 4.5 2ZM6.5 1H28.5C29.0523 1 29.5 1.44772 29.5 2C29.5 2.55228 29.0523 3 28.5 3H6.5C5.94772 3 5.5 2.55228 5.5 2C5.5 1.44772 5.94772 1 6.5 1ZM8.11713 4C8.99274 5.25227 9.95439 7.14429 10.3991 9.28356L14.2961 7.54345C14.4853 7.45897 14.707 7.49993 14.8536 7.64645L16.135 8.92794L17.3419 8.52566C17.6039 8.43833 17.887 8.57991 17.9743 8.84189C18.0617 9.10386 17.9201 9.38702 17.6581 9.47434L16.5 9.86038V12C16.5 12.2761 16.2761 12.5 16 12.5C15.7239 12.5 15.5 12.2761 15.5 12V9.70711L14.3897 8.59682L10.5675 10.3035C10.8151 12.3411 10.5432 14.555 9.25598 16.6055L12.6924 18.0385C12.8787 18.1162 13 18.2982 13 18.5V22.0901L17.5981 23.0097C17.8688 23.0639 18.0444 23.3273 17.9903 23.5981C17.9361 23.8688 17.6727 24.0444 17.4019 23.9903L12.4019 22.9903C12.1682 22.9435 12 22.7383 12 22.5V18.8332L8.66502 17.4425C8.42051 17.7525 8.15054 18.0566 7.85355 18.3536C7.84736 18.3598 7.841 18.3658 7.83448 18.3716C7.01068 19.1131 5.74862 20.3258 4.64621 21.5475C4.09475 22.1586 3.5898 22.7648 3.20095 23.3105C2.87486 23.7681 2.6538 24.1514 2.5427 24.4419L4.10934 27.1836L5.14645 26.1464C5.34171 25.9512 5.65829 25.9512 5.85355 26.1464C6.04882 26.3417 6.04882 26.6583 5.85355 26.8536L4.38856 28.3185L3.56192 29.5585L4.33852 31.5H6.73241L7.58398 30.2227C7.73715 29.9929 8.04759 29.9308 8.27735 30.084C8.50712 30.2372 8.5692 30.5476 8.41603 30.7773L7.41603 32.2774C7.32329 32.4165 7.16718 32.5 7 32.5H4.20711L1.01711 35.69C1.14192 36.9946 1.64951 39.1065 2.81476 41.2538L10.1961 35.603C10.3589 35.4783 10.5814 35.4657 10.7572 35.5713L17.9591 39.8924L22.3401 36.3876L20.076 32.765C19.9296 32.5308 20.0008 32.2224 20.235 32.076C20.4692 31.9296 20.7776 32.0008 20.924 32.235L23.3096 36.052L28.0981 37.0097C28.3688 37.0639 28.5444 37.3273 28.4903 37.5981C28.4361 37.8688 28.1727 38.0444 27.9019 37.9903L23.1304 37.036L18.3123 40.8904C18.1491 41.021 17.922 41.0363 17.7428 40.9287L10.5341 36.6036L3.32347 42.1238C4.33773 43.7363 5.73982 45.3007 7.64295 46.5H27.3971C29.2776 45.6664 33.347 42.3437 34.5041 35.434C34.5849 34.6183 34.6575 33.2741 34.6128 31.8912C34.5736 30.6809 34.4455 29.4878 34.1778 28.5959L32.9123 28.9123L32.4851 30.6213C32.4181 30.8892 32.1466 31.052 31.8787 30.9851C31.6108 30.9181 31.448 30.6466 31.5149 30.3787L31.9701 28.5582L30.691 26H28.7403L27.0604 28.0999L27.4743 29.3419C27.5617 29.6039 27.4201 29.887 27.1581 29.9743C26.8961 30.0617 26.613 29.9201 26.5257 29.6581L26.0257 28.1581C25.972 27.9972 26.0036 27.8201 26.1096 27.6877L27.9346 25.4064L27.5303 22.7374L25.8466 21.0537L22.4282 21.9083L21.9903 24.0981C21.9361 24.3688 21.6727 24.5444 21.4019 24.4903C21.1312 24.4361 20.9556 24.1727 21.0097 23.9019L21.4718 21.5915L20.0713 19.2572C19.9292 19.0205 20.006 18.7133 20.2428 18.5713C20.4795 18.4292 20.7867 18.506 20.9287 18.7428L22.2381 20.9251L25.7444 20.0485L27.2929 18.5L27.1464 18.3536C27.1301 18.3372 27.1148 18.3197 27.1009 18.3012C25.1902 15.7693 24.8059 12.7961 25.0783 10.1488C25.3349 7.65587 26.1767 5.40991 26.9295 4H8.11713Z" fill="#BDA17E"/>
</svg>
