<svg width="230" height="30" viewBox="0 0 230 30" fill="none" xmlns="http://www.w3.org/2000/svg">
<path fill-rule="evenodd" clip-rule="evenodd" d="M200.132 17C201.11 24.3387 207.394 30 215 30C223.284 30 230 23.2843 230 15C230 6.71573 223.284 0 215 0C207.394 0 201.11 5.66128 200.132 13H0V17H100.066H200.132ZM204 15C204 21.0751 208.925 26 215 26C221.075 26 226 21.0751 226 15C226 8.92487 221.075 4 215 4C208.925 4 204 8.92487 204 15Z" fill="#BDA17E"/>
<circle cx="215" cy="15" r="11" fill="#353130"/>
</svg>
