<svg width="50" height="50" viewBox="0 0 50 50" fill="none" xmlns="http://www.w3.org/2000/svg">
<path d="M31.1667 20.46C31.356 20.6611 31.3464 20.9775 31.1453 21.1667L23.375 28.48C22.7709 29.0486 21.82 29.0189 21.2526 28.4137L17.4379 24.3446C17.249 24.1432 17.2592 23.8267 17.4607 23.6379C17.6621 23.449 17.9786 23.4592 18.1674 23.6607L21.9821 27.7297C22.1713 27.9314 22.4882 27.9414 22.6896 27.7518L30.46 20.4385C30.6611 20.2493 30.9775 20.2589 31.1667 20.46Z" fill="#BDA17E"/>
<path fill-rule="evenodd" clip-rule="evenodd" d="M24.3026 40.8027C32.8631 40.8027 39.8027 33.8631 39.8027 25.3026C39.8027 16.7422 32.8631 9.80265 24.3026 9.80265C15.7422 9.80265 8.80265 16.7422 8.80265 25.3026C8.80265 33.8631 15.7422 40.8027 24.3026 40.8027ZM24.3026 39.8027C32.3108 39.8027 38.8027 33.3108 38.8027 25.3026C38.8027 17.2945 32.3108 10.8026 24.3026 10.8026C16.2945 10.8026 9.80265 17.2945 9.80265 25.3026C9.80265 33.3108 16.2945 39.8027 24.3026 39.8027Z" fill="#BDA17E"/>
<path fill-rule="evenodd" clip-rule="evenodd" d="M24.2527 0.164823C24.5864 -0.0549409 25.0189 -0.0549413 25.3526 0.164823L30.2194 3.36969C30.3994 3.48824 30.6129 3.54544 30.8281 3.53279L36.6453 3.19068C37.0442 3.16722 37.4187 3.38347 37.5979 3.74066L40.2102 8.94954C40.3068 9.14221 40.4631 9.2985 40.6558 9.39513L45.8646 12.0074C46.2218 12.1866 46.4381 12.5611 46.4146 12.96L46.0725 18.7772C46.0599 18.9924 46.1171 19.2059 46.2356 19.3859L49.4405 24.2527C49.6602 24.5864 49.6602 25.0189 49.4405 25.3526L46.2356 30.2194C46.1171 30.3994 46.0599 30.6129 46.0725 30.8281L46.4146 36.6453C46.4381 37.0442 46.2218 37.4187 45.8646 37.5979L40.6558 40.2102C40.4631 40.3068 40.3068 40.4631 40.2102 40.6558L37.5979 45.8646C37.4187 46.2218 37.0442 46.4381 36.6453 46.4146L30.8281 46.0725C30.6129 46.0599 30.3994 46.1171 30.2194 46.2356L25.3526 49.4405C25.0189 49.6602 24.5864 49.6602 24.2527 49.4405L19.3859 46.2356C19.2059 46.1171 18.9924 46.0599 18.7772 46.0725L12.96 46.4146C12.5611 46.4381 12.1866 46.2218 12.0074 45.8646L9.39513 40.6558C9.2985 40.4631 9.14221 40.3068 8.94954 40.2102L3.74066 37.5979C3.38347 37.4187 3.16722 37.0442 3.19068 36.6453L3.53279 30.8281C3.54544 30.6129 3.48824 30.3994 3.36969 30.2194L0.164823 25.3526C-0.0549409 25.0189 -0.0549413 24.5864 0.164823 24.2527L3.36969 19.3859C3.48824 19.2059 3.54544 18.9924 3.53279 18.7772L3.19068 12.96C3.16722 12.5611 3.38347 12.1866 3.74066 12.0074L8.94954 9.39513C9.14221 9.2985 9.2985 9.14221 9.39513 8.94954L12.0074 3.74066C12.1866 3.38347 12.5611 3.16722 12.96 3.19068L18.7772 3.53279C18.9924 3.54544 19.2059 3.48824 19.3859 3.36969L24.2527 0.164823ZM24.8026 1L29.6694 4.20487C30.0294 4.44196 30.4565 4.55637 30.8868 4.53106L36.704 4.18895L39.3163 9.39783C39.5095 9.78317 39.8221 10.0958 40.2075 10.289L45.4163 12.9013L45.0742 18.7185C45.0489 19.1488 45.1633 19.5758 45.4004 19.9359L48.6053 24.8026L45.4004 29.6694C45.1633 30.0294 45.0489 30.4565 45.0742 30.8868L45.4163 36.704L40.2075 39.3163C39.8221 39.5095 39.5095 39.8221 39.3163 40.2075L36.704 45.4163L30.8868 45.0742C30.4565 45.0489 30.0294 45.1633 29.6694 45.4004L24.8026 48.6053L19.9359 45.4004C19.5758 45.1633 19.1488 45.0489 18.7185 45.0742L12.9013 45.4163L10.289 40.2075C10.0958 39.8221 9.78317 39.5095 9.39783 39.3163L4.18895 36.704L4.53106 30.8868C4.55637 30.4565 4.44196 30.0294 4.20487 29.6694L1 24.8026L4.20487 19.9359C4.44196 19.5758 4.55637 19.1488 4.53106 18.7185L4.18895 12.9013L9.39783 10.289C9.78317 10.0958 10.0958 9.78317 10.289 9.39783L12.9013 4.18895L18.7185 4.53106C19.1488 4.55637 19.5758 4.44196 19.9359 4.20487L24.8026 1Z" fill="#BDA17E"/>
</svg>
