<svg width="44" height="43" viewBox="0 0 44 43" fill="none" xmlns="http://www.w3.org/2000/svg">
<path d="M3 16.5C3 7.93948 9.93959 1 18.5 1C26.4508 1 33.004 6.98671 33.8964 14.6981C33.9282 14.9724 34.1763 15.1691 34.4506 15.1373C34.7249 15.1056 34.9216 14.8575 34.8898 14.5831C33.9397 6.37315 26.9645 0 18.5 0C9.38731 0 2 7.38719 2 16.5C2 18.6321 2.40456 20.6707 3.14164 22.5426C3.14918 22.5617 3.15789 22.5804 3.16773 22.5984L4.06085 24.2391C4.19289 24.4816 4.49653 24.5712 4.73906 24.4391C4.9816 24.3071 5.07118 24.0035 4.93915 23.7609L4.0609 22.1477C3.37613 20.3984 3 18.4938 3 16.5Z" fill="#BDA17E"/>
<path d="M25.4305 5.75436C25.5709 5.51663 25.4921 5.21002 25.2544 5.06954C25.0166 4.92906 24.71 5.0079 24.5695 5.24564L18.1646 16.0848L9.34189 19.0257C9.07991 19.113 8.93833 19.3961 9.02566 19.6581C9.11298 19.9201 9.39614 20.0617 9.65811 19.9743L18.6581 16.9743C18.7724 16.9362 18.8692 16.8581 18.9305 16.7544L25.4305 5.75436Z" fill="#BDA17E"/>
<path fill-rule="evenodd" clip-rule="evenodd" d="M33 16C30.1912 16 27.6254 16.4545 25.7432 17.2073C24.8036 17.5832 24.0096 18.0433 23.4423 18.5797C22.874 19.1172 22.5 19.7659 22.5 20.5C22.5 21.2341 22.874 21.8828 23.4423 22.4202C24.0096 22.9567 24.8036 23.4168 25.7432 23.7926C27.6254 24.5455 30.1912 25 33 25C35.8088 25 38.3746 24.5455 40.2568 23.7926C41.1964 23.4168 41.9904 22.9567 42.5577 22.4202C43.126 21.8828 43.5 21.2341 43.5 20.5C43.5 19.7659 43.126 19.1172 42.5577 18.5797C41.9904 18.0433 41.1964 17.5832 40.2568 17.2073C38.3746 16.4545 35.8088 16 33 16ZM23.5 20.5C23.5 20.1295 23.6857 19.7259 24.1294 19.3063C24.5742 18.8856 25.2447 18.4838 26.1146 18.1358C27.8518 17.441 30.2859 17 33 17C35.7141 17 38.1482 17.441 39.8854 18.1358C40.7553 18.4838 41.4258 18.8856 41.8706 19.3063C42.3143 19.7259 42.5 20.1295 42.5 20.5C42.5 20.8705 42.3143 21.274 41.8706 21.6937C41.4258 22.1143 40.7553 22.5162 39.8854 22.8642C38.1482 23.559 35.7141 24 33 24C30.2859 24 27.8518 23.559 26.1146 22.8642C25.2447 22.5162 24.5742 22.1143 24.1294 21.6937C23.6857 21.274 23.5 20.8705 23.5 20.5Z" fill="#BDA17E"/>
<path d="M23.5 23.5C23.5 23.2238 23.2761 23 23 23C22.7239 23 22.5 23.2238 22.5 23.5C22.5 24.234 22.874 24.8828 23.4423 25.4202C24.0096 25.9567 24.8036 26.4168 25.7432 26.7926C27.6254 27.5455 30.1912 28 33 28C35.8088 28 38.3746 27.5455 40.2568 26.7926C41.1964 26.4168 41.9904 25.9567 42.5577 25.4202C43.126 24.8828 43.5 24.234 43.5 23.5C43.5 23.2238 43.2761 23 43 23C42.7239 23 42.5 23.2238 42.5 23.5C42.5 23.8705 42.3143 24.274 41.8706 24.6937C41.4258 25.1143 40.7553 25.5162 39.8854 25.8642C38.1482 26.559 35.7141 27 33 27C30.2859 27 27.8518 26.559 26.1146 25.8642C25.2447 25.5162 24.5742 25.1143 24.1294 24.6937C23.6857 24.274 23.5 23.8705 23.5 23.5Z" fill="#BDA17E"/>
<path fill-rule="evenodd" clip-rule="evenodd" d="M10.5 25C7.69125 25 5.12538 25.4545 3.24324 26.2074C2.30355 26.5832 1.50955 27.0433 0.942296 27.5798C0.373984 28.1172 0 28.766 0 29.5C0 30.2341 0.373984 30.8828 0.942296 31.4203C1.50955 31.9567 2.30355 32.4168 3.24324 32.7927C5.12538 33.5455 7.69125 34 10.5 34C13.3087 34 15.8746 33.5455 17.7568 32.7927C18.6964 32.4168 19.4904 31.9567 20.0577 31.4203C20.626 30.8828 21 30.2341 21 29.5C21 28.766 20.626 28.1172 20.0577 27.5798C19.4904 27.0433 18.6964 26.5832 17.7568 26.2074C15.8746 25.4545 13.3087 25 10.5 25ZM1 29.5C1 29.1295 1.18566 28.726 1.6294 28.3063C2.0742 27.8857 2.74467 27.4838 3.61463 27.1359C5.35177 26.441 7.7859 26 10.5 26C13.2141 26 15.6482 26.441 17.3854 27.1359C18.2553 27.4838 18.9258 27.8857 19.3706 28.3063C19.8143 28.726 20 29.1295 20 29.5C20 29.8705 19.8143 30.2741 19.3706 30.6937C18.9258 31.1144 18.2553 31.5162 17.3854 31.8642C15.6482 32.5591 13.2141 33 10.5 33C7.7859 33 5.35177 32.5591 3.61463 31.8642C2.74467 31.5162 2.0742 31.1144 1.6294 30.6937C1.18566 30.2741 1 29.8705 1 29.5Z" fill="#BDA17E"/>
<path d="M23.5 26.5C23.5 26.2238 23.2761 26 23 26C22.7239 26 22.5 26.2238 22.5 26.5C22.5 27.234 22.874 27.8828 23.4423 28.4202C24.0096 28.9567 24.8036 29.4168 25.7432 29.7926C27.6254 30.5455 30.1912 31 33 31C35.8088 31 38.3746 30.5455 40.2568 29.7926C41.1964 29.4168 41.9904 28.9567 42.5577 28.4202C43.126 27.8828 43.5 27.234 43.5 26.5C43.5 26.2238 43.2761 26 43 26C42.7239 26 42.5 26.2238 42.5 26.5C42.5 26.8705 42.3143 27.274 41.8706 27.6937C41.4258 28.1143 40.7553 28.5162 39.8854 28.8642C38.1482 29.559 35.7141 30 33 30C30.2859 30 27.8518 29.559 26.1146 28.8642C25.2447 28.5162 24.5742 28.1143 24.1294 27.6937C23.6857 27.274 23.5 26.8705 23.5 26.5Z" fill="#BDA17E"/>
<path d="M23.5 29.5C23.5 29.2238 23.2761 29 23 29C22.7239 29 22.5 29.2238 22.5 29.5C22.5 30.234 22.874 30.8828 23.4423 31.4202C24.0096 31.9567 24.8036 32.4167 25.7432 32.7926C27.6254 33.5455 30.1912 34 33 34C35.8088 34 38.3746 33.5455 40.2568 32.7926C41.1964 32.4167 41.9904 31.9567 42.5577 31.4202C43.126 30.8828 43.5 30.234 43.5 29.5C43.5 29.2238 43.2761 29 43 29C42.7239 29 42.5 29.2238 42.5 29.5C42.5 29.8705 42.3143 30.274 41.8706 30.6937C41.4258 31.1143 40.7553 31.5162 39.8854 31.8641C38.1482 32.559 35.7141 33 33 33C30.2859 33 27.8518 32.559 26.1146 31.8641C25.2447 31.5162 24.5742 31.1143 24.1294 30.6937C23.6857 30.274 23.5 29.8705 23.5 29.5Z" fill="#BDA17E"/>
<path d="M23.5 32.5C23.5 32.2238 23.2761 32 23 32C22.7239 32 22.5 32.2238 22.5 32.5C22.5 33.234 22.874 33.8828 23.4423 34.4202C24.0096 34.9567 24.8036 35.4167 25.7432 35.7926C27.6254 36.5455 30.1912 36.9999 33 36.9999C35.8088 36.9999 38.3746 36.5455 40.2568 35.7926C41.1964 35.4167 41.9904 34.9567 42.5577 34.4202C43.126 33.8828 43.5 33.234 43.5 32.5C43.5 32.2238 43.2761 32 43 32C42.7239 32 42.5 32.2238 42.5 32.5C42.5 32.8705 42.3143 33.274 41.8706 33.6937C41.4258 34.1143 40.7553 34.5162 39.8854 34.8641C38.1482 35.559 35.7141 35.9999 33 35.9999C30.2859 35.9999 27.8518 35.559 26.1146 34.8641C25.2447 34.5162 24.5742 34.1143 24.1294 33.6937C23.6857 33.274 23.5 32.8705 23.5 32.5Z" fill="#BDA17E"/>
<path d="M1 32.5C1 32.2239 0.776142 32 0.5 32C0.223858 32 0 32.2239 0 32.5C0 33.2341 0.373984 33.8828 0.942296 34.4203C1.50955 34.9567 2.30355 35.4168 3.24324 35.7927C5.12538 36.5455 7.69125 37 10.5 37C13.3088 37 15.8746 36.5455 17.7568 35.7927C18.6964 35.4168 19.4904 34.9567 20.0577 34.4203C20.626 33.8828 21 33.2341 21 32.5C21 32.2239 20.7761 32 20.5 32C20.2239 32 20 32.2239 20 32.5C20 32.8705 19.8143 33.2741 19.3706 33.6937C18.9258 34.1144 18.2553 34.5162 17.3854 34.8642C15.6482 35.5591 13.2141 36 10.5 36C7.7859 36 5.35177 35.5591 3.61463 34.8642C2.74467 34.5162 2.0742 34.1144 1.6294 33.6937C1.18566 33.2741 1 32.8705 1 32.5Z" fill="#BDA17E"/>
<path d="M23.5 35.4999C23.5 35.2238 23.2761 34.9999 23 34.9999C22.7239 34.9999 22.5 35.2238 22.5 35.4999C22.5 36.234 22.874 36.8827 23.4423 37.4202C24.0096 37.9567 24.8036 38.4167 25.7432 38.7926C27.6254 39.5455 30.1912 39.9999 33 39.9999C35.8088 39.9999 38.3746 39.5455 40.2568 38.7926C41.1964 38.4167 41.9904 37.9567 42.5577 37.4202C43.126 36.8827 43.5 36.234 43.5 35.4999C43.5 35.2238 43.2761 34.9999 43 34.9999C42.7239 34.9999 42.5 35.2238 42.5 35.4999C42.5 35.8704 42.3143 36.274 41.8706 36.6936C41.4258 37.1143 40.7553 37.5161 39.8854 37.8641C38.1482 38.559 35.7141 38.9999 33 38.9999C30.2859 38.9999 27.8518 38.559 26.1146 37.8641C25.2447 37.5161 24.5742 37.1143 24.1294 36.6936C23.6857 36.274 23.5 35.8704 23.5 35.4999Z" fill="#BDA17E"/>
<path d="M1 35.5C1 35.2239 0.776142 35 0.5 35C0.223858 35 0 35.2239 0 35.5C0 36.2341 0.373984 36.8828 0.942296 37.4203C1.50955 37.9567 2.30355 38.4168 3.24324 38.7927C5.12538 39.5455 7.69125 40 10.5 40C13.3088 40 15.8746 39.5455 17.7568 38.7927C18.6964 38.4168 19.4904 37.9567 20.0577 37.4203C20.626 36.8828 21 36.2341 21 35.5C21 35.2239 20.7761 35 20.5 35C20.2239 35 20 35.2239 20 35.5C20 35.8705 19.8143 36.2741 19.3706 36.6937C18.9258 37.1144 18.2553 37.5162 17.3854 37.8642C15.6482 38.5591 13.2141 39 10.5 39C7.7859 39 5.35177 38.5591 3.61463 37.8642C2.74467 37.5162 2.0742 37.1144 1.6294 36.6937C1.18566 36.2741 1 35.8705 1 35.5Z" fill="#BDA17E"/>
<path d="M23.5 38.4999C23.5 38.2238 23.2761 37.9999 23 37.9999C22.7239 37.9999 22.5 38.2238 22.5 38.4999C22.5 39.234 22.874 39.8827 23.4423 40.4202C24.0096 40.9566 24.8036 41.4167 25.7432 41.7926C27.6254 42.5455 30.1912 42.9999 33 42.9999C35.8088 42.9999 38.3746 42.5455 40.2568 41.7926C41.1964 41.4167 41.9904 40.9566 42.5577 40.4202C43.126 39.8827 43.5 39.234 43.5 38.4999C43.5 38.2238 43.2761 37.9999 43 37.9999C42.7239 37.9999 42.5 38.2238 42.5 38.4999C42.5 38.8704 42.3143 39.274 41.8706 39.6936C41.4258 40.1143 40.7553 40.5161 39.8854 40.8641C38.1482 41.559 35.7141 41.9999 33 41.9999C30.2859 41.9999 27.8518 41.559 26.1146 40.8641C25.2447 40.5161 24.5742 40.1143 24.1294 39.6936C23.6857 39.274 23.5 38.8704 23.5 38.4999Z" fill="#BDA17E"/>
<path d="M1 38.5C1 38.2239 0.776142 38 0.5 38C0.223858 38 0 38.2239 0 38.5C0 39.2341 0.373984 39.8828 0.942296 40.4203C1.50955 40.9567 2.30355 41.4168 3.24324 41.7927C5.12538 42.5455 7.69125 43 10.5 43C13.3088 43 15.8746 42.5455 17.7568 41.7927C18.6964 41.4168 19.4904 40.9567 20.0577 40.4203C20.626 39.8828 21 39.2341 21 38.5C21 38.2239 20.7761 38 20.5 38C20.2239 38 20 38.2239 20 38.5C20 38.8705 19.8143 39.2741 19.3706 39.6937C18.9258 40.1144 18.2553 40.5162 17.3854 40.8642C15.6482 41.559 13.2141 42 10.5 42C7.7859 42 5.35177 41.559 3.61463 40.8642C2.74467 40.5162 2.0742 40.1144 1.6294 39.6937C1.18566 39.2741 1 38.8705 1 38.5Z" fill="#BDA17E"/>
</svg>
