<svg width="54" height="47" viewBox="0 0 54 47" fill="none" xmlns="http://www.w3.org/2000/svg">
<path fill-rule="evenodd" clip-rule="evenodd" d="M0 1.5C0 0.671573 0.671573 0 1.5 0H52.5C53.3284 0 54 0.671574 54 1.5V13.5C54 14.3284 53.3284 15 52.5 15H2.12598L27.1538 32H50.7779L31.7322 19.9223C31.499 19.7744 31.4299 19.4654 31.5777 19.2322C31.7256 18.999 32.0346 18.9299 32.2678 19.0777L52.6582 32.0082C53.4122 32.0873 54 32.725 54 33.5V45.5C54 46.3284 53.3284 47 52.5 47H1.5C0.671573 47 0 46.3284 0 45.5V33.5C0 32.6716 0.671573 32 1.5 32H25.374L0.219058 14.9136C0.0820352 14.8205 0 14.6656 0 14.5V1.5ZM1 14V1.5C1 1.22386 1.22386 1 1.5 1H52.5C52.7761 1 53 1.22386 53 1.5V13.5C53 13.7761 52.7761 14 52.5 14H47V8.5C47 8.22386 46.7761 8 46.5 8C46.2239 8 46 8.22386 46 8.5V14H40.5V10.5C40.5 10.2239 40.2761 10 40 10C39.7239 10 39.5 10.2239 39.5 10.5V14H33.5V10.5C33.5 10.2239 33.2761 10 33 10C32.7239 10 32.5 10.2239 32.5 10.5V14H27V8.5C27 8.22386 26.7761 8 26.5 8C26.2239 8 26 8.22386 26 8.5V14H21V10.5C21 10.2239 20.7761 10 20.5 10C20.2239 10 20 10.2239 20 10.5V14H14.5V10.5C14.5 10.2239 14.2761 10 14 10C13.7239 10 13.5 10.2239 13.5 10.5V14H8.5V8.5C8.5 8.22386 8.27614 8 8 8C7.72386 8 7.5 8.22386 7.5 8.5V14H1ZM1.5 33C1.22386 33 1 33.2239 1 33.5V45.5C1 45.7761 1.22386 46 1.5 46H7.5V40.5C7.5 40.2239 7.72386 40 8 40C8.27614 40 8.5 40.2239 8.5 40.5V46H13.5V42.5C13.5 42.2239 13.7239 42 14 42C14.2761 42 14.5 42.2239 14.5 42.5V46H20V42.5C20 42.2239 20.2239 42 20.5 42C20.7761 42 21 42.2239 21 42.5V46H26V40.5C26 40.2239 26.2239 40 26.5 40C26.7761 40 27 40.2239 27 40.5V46H32.5V42.5C32.5 42.2239 32.7239 42 33 42C33.2761 42 33.5 42.2239 33.5 42.5V46H39.5V42.5C39.5 42.2239 39.7239 42 40 42C40.2761 42 40.5 42.2239 40.5 42.5V46H46V40.5C46 40.2239 46.2239 40 46.5 40C46.7761 40 47 40.2239 47 40.5V46H52.5C52.7761 46 53 45.7761 53 45.5V33.5C53 33.2239 52.7761 33 52.5 33H1.5Z" fill="#BDA17E"/>
</svg>
