<svg width="110" height="95" viewBox="0 0 110 95" fill="none" xmlns="http://www.w3.org/2000/svg">
<g opacity="0.1">
<path d="M84.0195 94.2803C98.3682 94.2803 110 82.6804 110 68.3712C110 54.0621 98.3682 42.4621 84.0195 42.4621C81.0202 42.4621 78.1395 42.969 75.459 43.9015C76.1161 32.3864 87.6943 9.83583 93.4014 0C62.2248 15.5454 56.8363 52.0581 58.039 68.3712C58.039 82.6804 69.6709 94.2803 84.0195 94.2803Z" fill="#BDA17E"/>
<path d="M26.1328 95C40.4815 95 52.1133 83.4001 52.1133 69.0909C52.1133 54.7818 40.4815 43.1818 26.1328 43.1818C23.1335 43.1818 20.2528 43.6886 17.5723 44.6212C18.2294 33.1061 29.8076 10.5555 35.5147 0.719697C4.33812 16.2651 -1.05043 52.7778 0.152342 69.0909C0.152342 83.4001 11.7842 95 26.1328 95Z" fill="#BDA17E"/>
</g>
<path d="M75.1055 80.5C85.0467 80.5 93.1055 72.4411 93.1055 62.5C93.1055 52.5589 85.0467 44.5 75.1055 44.5C73.0275 44.5 71.0317 44.8521 69.1746 45.5C69.6298 37.5 77.6516 21.8333 81.6055 15C60.0056 25.8 56.2722 51.1667 57.1055 62.5C57.1055 72.4411 65.1644 80.5 75.1055 80.5Z" fill="#BDA17E"/>
<path d="M35 81C44.9412 81 53 72.9411 53 63C53 53.0589 44.9412 45 35 45C32.922 45 30.9262 45.3521 29.069 46C29.5243 38 37.546 22.3333 41.5 15.5C19.9 26.3 16.1667 51.6667 17 63C17 72.9411 25.0589 81 35 81Z" fill="#BDA17E"/>
</svg>
