<svg width="51" height="59" viewBox="0 0 51 59" fill="none" xmlns="http://www.w3.org/2000/svg">
<path fill-rule="evenodd" clip-rule="evenodd" d="M21.1152 4.07307C19.7754 4.33153 18.6261 4.81314 17.6403 5.44904L21.3641 17H30.1228L33.4186 5.45946C32.1563 4.65574 30.8936 4.22542 29.8885 4.05662L27.9881 12.6085C27.9373 12.8372 27.7344 13 27.5 13H23.5C23.2656 13 23.0627 12.8372 23.0119 12.6085L21.1152 4.07307ZM30.0231 3.0653C29.9994 2.5086 29.7989 1.85411 29.2817 1.28781C28.5863 0.526486 27.3892 0 25.5 0C24.3117 0 23.4371 0.231054 22.7942 0.607621C22.1457 0.987467 21.7693 1.49415 21.546 1.97797C21.3584 2.38448 21.2793 2.77655 21.2322 3.03616C19.4805 3.32749 18.0015 3.96576 16.7619 4.83499C14.4872 6.43004 13.0495 8.77981 12.1812 11.1185C11.4013 13.2191 11.0695 15.3399 11.01 16.9662C10.6597 16.9935 10.275 17.1169 9.93067 17.4028C9.35853 17.8776 9 18.7144 9 20C9 21.0984 9.26151 21.8692 9.69528 22.367C9.24543 25.7993 10.1112 27.8794 11.5506 29.0176C12.8238 30.0244 14.438 30.2046 15.6691 30.0618C16.2783 32.1684 17.3174 34.217 19 35.7093V40.3651C18.618 40.281 18.2186 40.2073 17.805 40.1463C14.9864 39.7308 11.4604 39.9007 8.28041 41.4552C3.71244 43.6882 0 48.704 0 58.5C0 58.7761 0.223858 59 0.5 59H50.5C50.7761 59 51 58.7761 51 58.5C51 48.704 47.2876 43.6882 42.7196 41.4552C39.5396 39.9007 36.0136 39.7308 33.195 40.1463C32.7814 40.2073 32.382 40.281 32 40.3651V35.7093C33.6823 34.2172 34.7213 32.1692 35.3305 30.063C36.5323 30.2037 38.1009 30.021 39.3263 29.0113C40.707 27.8737 41.5119 25.8074 41.0384 22.4122C41.5902 21.9403 42 21.165 42 20C42 18.879 41.621 18.1112 41.0845 17.6284C40.7393 17.3177 40.3484 17.1427 39.9961 17.0601C39.879 10.5739 37.1755 6.81318 34.2825 4.83184C32.7913 3.81051 31.2579 3.26783 30.0231 3.0653ZM38.9947 17C38.8729 11.3156 36.6762 7.95202 34.2835 6.07241L31.1628 17H38.9947ZM40.0944 22.9147C39.8802 22.9745 39.6762 23 39.5 23H36.0439C36.1636 24.7302 36.0766 26.9185 35.5829 29.0843C36.5767 29.1744 37.7799 28.9897 38.6904 28.2395C39.6665 27.4353 40.4328 25.8719 40.0944 22.9147ZM35.0413 23H15.9587C15.8276 24.7928 15.9308 27.1263 16.517 29.3738C17.0945 31.5876 18.1285 33.6738 19.8218 35.0978C21.1966 36.254 23.0361 37 25.5 37C27.9639 37 29.8034 36.254 31.1782 35.0978C32.8715 33.6738 33.9055 31.5876 34.483 29.3738C35.0692 27.1263 35.1724 24.7928 35.0413 23ZM14.9561 23H11.5562C11.2934 23.055 10.9665 23.0608 10.6328 22.967C10.3483 25.8803 11.1545 27.4295 12.1709 28.2332C13.1314 28.9928 14.388 29.1763 15.4168 29.0829C14.9233 26.9176 14.8365 24.7299 14.9561 23ZM31 36.4762C29.551 37.43 27.7385 38 25.5 38C23.2615 38 21.449 37.43 20 36.4762V40.8159C20.6978 41.5874 22.6375 43 25.5 43C28.3625 43 30.3022 41.5874 31 40.8159V36.4762ZM31.7793 41.4444C30.933 42.4042 28.7175 44 25.5 44C22.2825 44 20.067 42.4042 19.2207 41.4444C19.062 41.4045 18.8992 41.3664 18.7327 41.3303L25.5 52.533L32.2673 41.3303C32.1008 41.3664 31.938 41.4045 31.7793 41.4444ZM33.5729 41.1031L26.3862 53H42V42.2208C39.207 40.9402 36.1244 40.7629 33.5729 41.1031ZM43 42.7354V58H49.9967C49.8807 49.3706 46.7582 44.8931 43 42.7354ZM42 58V54H26V58H42ZM25 58V54H9V58H25ZM8 58L8 42.7354C4.24185 44.8931 1.11928 49.3706 1.00334 58H8ZM9 42.2208L9 53H24.6138L17.4271 41.1031C14.8756 40.7629 11.793 40.9402 9 42.2208ZM12.0094 17H20.3135L16.7889 6.06734C15.0381 7.49123 13.8665 9.45246 13.1187 11.4666C12.3794 13.4579 12.0656 15.4718 12.0094 17ZM29.0088 3.40566C29.0672 3.03287 28.9906 2.4519 28.5433 1.96219C28.097 1.47351 27.2108 1 25.5 1C24.4383 1 23.7504 1.20645 23.2996 1.4705C22.8543 1.73128 22.6057 2.06835 22.454 2.39703C22.306 2.71774 22.2499 3.02801 22.2031 3.28715C22.2004 3.30215 22.1977 3.31698 22.1951 3.33163C22.1835 3.39531 22.1702 3.46617 22.1543 3.52978C22.1419 3.57957 22.118 3.66871 22.069 3.75573L23.9011 12H27.0989L29.0088 3.40566ZM10.5693 18.1722C10.3081 18.389 10 18.8856 10 20C10 21.0918 10.296 21.5906 10.5525 21.8135C10.8244 22.0497 11.1594 22.0698 11.3787 22.0149C11.4184 22.005 11.4591 22 11.5 22H39.5C39.6795 22 39.9614 21.9428 40.2295 21.7704C40.5975 21.5337 41 21.0409 41 20C41 19.121 40.7123 18.6388 40.4155 18.3716C40.1027 18.0901 39.727 18 39.5 18H11.5C11.4591 18 11.4184 17.995 11.3787 17.9851C11.1641 17.9314 10.8376 17.9496 10.5693 18.1722Z" fill="#BDA17E"/>
</svg>
