<svg width="48" height="48" viewBox="0 0 48 48" fill="none" xmlns="http://www.w3.org/2000/svg">
<path d="M24.2 0.100029C24.4209 -0.065656 24.7343 -0.0208845 24.9 0.200029C25.4678 0.957126 26.289 2.94801 24.9 4.80003C23.889 6.14801 24.4678 7.62379 24.9 8.20003C25.0657 8.42094 25.0209 8.73434 24.8 8.90003C24.5791 9.06571 24.2657 9.02094 24.1 8.80003C23.5322 8.04293 22.711 6.05205 24.1 4.20003C25.111 2.85205 24.5322 1.37627 24.1 0.800029C23.9343 0.579116 23.9791 0.265715 24.2 0.100029Z" fill="#BDA17E"/>
<path fill-rule="evenodd" clip-rule="evenodd" d="M14.5 12.5C12.567 12.5 11 14.067 11 16V18.5H5.5C5.22386 18.5 5 18.7239 5 19C5 19.2761 5.22386 19.5 5.5 19.5H11V22.5H5.5C5.22386 22.5 5 22.7239 5 23C5 23.2761 5.22386 23.5 5.5 23.5H11V33.5H8.5C6.73676 33.5 5.27806 34.8039 5.03544 36.5H2.5C1.11929 36.5 0 37.6193 0 39C0 40.3807 1.11929 41.5 2.5 41.5H5.05001C5.28164 42.6411 6.29052 43.5 7.5 43.5H11V44C11 45.933 12.567 47.5 14.5 47.5C15.7732 47.5 16.8876 46.8202 17.5 45.8038C18.1124 46.8202 19.2268 47.5 20.5 47.5C21.7732 47.5 22.8876 46.8202 23.5 45.8038C24.1124 46.8202 25.2268 47.5 26.5 47.5C27.7732 47.5 28.8876 46.8202 29.5 45.8038C30.1124 46.8202 31.2268 47.5 32.5 47.5C33.7732 47.5 34.8876 46.8202 35.5 45.8038C36.1125 46.8202 37.2268 47.5 38.5 47.5C39.7732 47.5 40.8876 46.8202 41.5 45.8038C42.1125 46.8202 43.2268 47.5 44.5 47.5C46.433 47.5 48 45.933 48 44V16C48 14.067 46.433 12.5 44.5 12.5C43.2268 12.5 42.1124 13.1798 41.5 14.1962C40.8876 13.1798 39.7732 12.5 38.5 12.5C37.2268 12.5 36.1124 13.1798 35.5 14.1962C34.8876 13.1798 33.7732 12.5 32.5 12.5C31.2268 12.5 30.1124 13.1798 29.5 14.1962C28.8876 13.1798 27.7732 12.5 26.5 12.5C25.2268 12.5 24.1124 13.1798 23.5 14.1962C22.8876 13.1798 21.7732 12.5 20.5 12.5C19.2268 12.5 18.1124 13.1798 17.5 14.1962C16.8876 13.1798 15.7732 12.5 14.5 12.5ZM42 16V44C42 45.3807 43.1193 46.5 44.5 46.5C45.8807 46.5 47 45.3807 47 44V16C47 14.6193 45.8807 13.5 44.5 13.5C43.1193 13.5 42 14.6193 42 16ZM41 16C41 14.6193 39.8807 13.5 38.5 13.5C37.1193 13.5 36 14.6193 36 16V44C36 45.3807 37.1193 46.5 38.5 46.5C39.8807 46.5 41 45.3807 41 44V16ZM35 16V44C35 45.3807 33.8807 46.5 32.5 46.5C31.1193 46.5 30 45.3807 30 44V16C30 14.6193 31.1193 13.5 32.5 13.5C33.8807 13.5 35 14.6193 35 16ZM29 16C29 14.6193 27.8807 13.5 26.5 13.5C25.1193 13.5 24 14.6193 24 16V44C24 45.3807 25.1193 46.5 26.5 46.5C27.8807 46.5 29 45.3807 29 44V16ZM23 16V44C23 45.3807 21.8807 46.5 20.5 46.5C19.1193 46.5 18 45.3807 18 44V16C18 14.6193 19.1193 13.5 20.5 13.5C21.8807 13.5 23 14.6193 23 16ZM17 16C17 14.6193 15.8807 13.5 14.5 13.5C13.1193 13.5 12 14.6193 12 16V44C12 45.3807 13.1193 46.5 14.5 46.5C15.8807 46.5 17 45.3807 17 44V16ZM8.5 34.5H11V42.5H7.5C6.67157 42.5 6 41.8284 6 41V37C6 35.6193 7.11929 34.5 8.5 34.5ZM2.5 37.5H5V40.5H2.5C1.67157 40.5 1 39.8284 1 39C1 38.1716 1.67157 37.5 2.5 37.5Z" fill="#BDA17E"/>
<path d="M29.5626 0.200029C29.3969 -0.0208845 29.0835 -0.065656 28.8626 0.100029C28.6417 0.265715 28.5969 0.579116 28.7626 0.800029C29.1947 1.37627 29.7736 2.85205 28.7626 4.20003C27.3736 6.05205 28.1947 8.04293 28.7626 8.80003C28.9283 9.02094 29.2417 9.06571 29.4626 8.90003C29.6835 8.73434 29.7283 8.42094 29.5626 8.20003C29.1304 7.62379 28.5516 6.14801 29.5626 4.80003C30.9516 2.94801 30.1304 0.957126 29.5626 0.200029Z" fill="#BDA17E"/>
<path d="M33.8626 0.100029C34.0835 -0.065656 34.3969 -0.0208845 34.5626 0.200029C35.1304 0.957126 35.9516 2.94801 34.5626 4.80003C33.5516 6.14801 34.1304 7.62379 34.5626 8.20003C34.7283 8.42094 34.6835 8.73434 34.4626 8.90003C34.2417 9.06571 33.9283 9.02094 33.7626 8.80003C33.1947 8.04293 32.3736 6.05205 33.7626 4.20003C34.7736 2.85205 34.1947 1.37627 33.7626 0.800029C33.5969 0.579116 33.6417 0.265715 33.8626 0.100029Z" fill="#BDA17E"/>
<path d="M39.5626 0.200029C39.3969 -0.0208845 39.0835 -0.065656 38.8626 0.100029C38.6417 0.265715 38.5969 0.579116 38.7626 0.800029C39.1947 1.37627 39.7736 2.85205 38.7626 4.20003C37.3736 6.05205 38.1947 8.04293 38.7626 8.80003C38.9283 9.02094 39.2417 9.06571 39.4626 8.90003C39.6835 8.73434 39.7283 8.42094 39.5626 8.20003C39.1304 7.62379 38.5516 6.14801 39.5626 4.80003C40.9516 2.94801 40.1304 0.957126 39.5626 0.200029Z" fill="#BDA17E"/>
</svg>
