<svg width="179" height="146" viewBox="0 0 179 146" fill="none" xmlns="http://www.w3.org/2000/svg">
<path d="M167.5 82V132.5H119.5M177 43.5L166.25 52M119.5 120H155.5V97.5M119.5 120H74.5M119.5 120C119.5 116.053 120.764 112.75 122.856 110M74.5 120L63 132.25M74.5 120H2M51.5 144.5L63 132.25M63 132.25H16M166.25 52L155.5 60.5V97.5M166.25 52V11.5M155.5 97.5C153.061 97.5677 150.127 97.8268 147 98.341M122.856 110H19.5M122.856 110C125.323 106.757 128.942 104.283 133 102.425M147 98.341V2M147 98.341C142.432 99.0919 137.452 100.387 133 102.425M133 102.425V21" stroke="#353130" stroke-width="3" stroke-linecap="round"/>
</svg>
