<svg width="54" height="50" viewBox="0 0 54 50" fill="none" xmlns="http://www.w3.org/2000/svg">
<path d="M32.7917 1.36111C20.0153 -0.89171 7.83144 7.63502 5.57067 20.408C5.21976 23.5383 5.39879 26.059 5.66355 27.7917C5.74027 28.2938 5.82419 28.7298 5.90449 29.0951L7.94674 24.2826C8.05462 24.0284 8.34813 23.9098 8.60234 24.0177C8.85654 24.1256 8.97516 24.4191 8.86729 24.6733L5.99613 31.4391L0.176906 26.5116C-0.0338351 26.3332 -0.0600155 26.0177 0.118431 25.8069C0.296876 25.5962 0.612375 25.57 0.823115 25.7484L4.90504 29.2048C4.82742 28.842 4.74798 28.4202 4.67502 27.9428C4.39809 26.1303 4.21451 23.5153 4.57869 20.2806L4.58044 20.2651L4.58315 20.2497C6.93278 6.92431 19.6399 -1.97332 32.9653 0.376307C46.2907 2.72594 55.1884 15.4331 52.8387 28.7585C50.4891 42.0839 37.782 50.9815 24.4566 48.6319C17.7789 47.4544 12.2125 43.6752 8.61735 38.5219C8.45935 38.2954 8.51486 37.9837 8.74134 37.8257C8.96781 37.6677 9.27949 37.7232 9.43749 37.9497C12.8868 42.894 18.2249 46.5176 24.6302 47.6471C37.4117 49.9008 49.6002 41.3663 51.8539 28.5848C54.1076 15.8033 45.5732 3.61484 32.7917 1.36111Z" fill="#BDA17E"/>
<path fill-rule="evenodd" clip-rule="evenodd" d="M32.4928 29.1623C31.1893 30.2196 29.4518 30.7273 27.6691 30.4129C24.4057 29.8375 22.2267 26.7256 22.8021 23.4622C23.294 20.6727 25.6393 18.6754 28.3483 18.5137C28.279 18.4279 28.2375 18.3187 28.2375 18.1998V4.19981C28.2375 3.92367 28.4613 3.69981 28.7375 3.69981C29.0136 3.69981 29.2375 3.92367 29.2375 4.19981V18.1998C29.2375 18.3206 29.1947 18.4314 29.1234 18.5178C29.3321 18.5324 29.5422 18.5581 29.7528 18.5953C33.0162 19.1707 35.1952 22.2826 34.6198 25.546C34.4211 26.6728 33.92 27.6704 33.2146 28.4699L41.091 36.3463C41.2863 36.5415 41.2863 36.8581 41.091 37.0534C40.8958 37.2486 40.5792 37.2486 40.3839 37.0534L32.4928 29.1623ZM33.635 25.3723C33.1555 28.0918 30.5622 29.9077 27.8427 29.4281C25.1232 28.9486 23.3074 26.3553 23.7869 23.6359C24.2664 20.9164 26.8597 19.1005 29.5792 19.5801C32.2987 20.0596 34.1145 22.6529 33.635 25.3723Z" fill="#BDA17E"/>
</svg>
