<svg width="179" height="146" viewBox="0 0 179 146" fill="none" xmlns="http://www.w3.org/2000/svg">
<path d="M167.5 64.5V14H119.5M177 103L166.25 94.5M119.5 26.5H155.5V49M119.5 26.5H74.5M119.5 26.5C119.5 30.4469 120.764 33.7496 122.856 36.5M74.5 26.5L63 14.25M74.5 26.5H2M51.5 2L63 14.25M63 14.25H16M166.25 94.5L155.5 86V49M166.25 94.5V135M155.5 49C153.061 48.9323 150.127 48.6732 147 48.159M122.856 36.5H19.5M122.856 36.5C125.323 39.7425 128.942 42.2174 133 44.075M147 48.159V144.5M147 48.159C142.432 47.4081 137.452 46.113 133 44.075M133 44.075V125.5" stroke="#353130" stroke-width="3" stroke-linecap="round"/>
</svg>
