<svg width="49" height="49" viewBox="0 0 49 49" fill="none" xmlns="http://www.w3.org/2000/svg">
<path fill-rule="evenodd" clip-rule="evenodd" d="M24.5 38.5C32.232 38.5 38.5 32.232 38.5 24.5C38.5 16.768 32.232 10.5 24.5 10.5C16.768 10.5 10.5 16.768 10.5 24.5C10.5 32.232 16.768 38.5 24.5 38.5ZM37.5 24.5C37.5 31.6797 31.6797 37.5 24.5 37.5C17.3203 37.5 11.5 31.6797 11.5 24.5C11.5 17.3203 17.3203 11.5 24.5 11.5C31.6797 11.5 37.5 17.3203 37.5 24.5Z" fill="#BDA17E"/>
<path fill-rule="evenodd" clip-rule="evenodd" d="M21.5 0C21.2588 0 21.052 0.172144 21.0083 0.409309L20.0683 5.50587C17.9619 5.9954 15.9867 6.82621 14.2041 7.93665L9.93434 4.99632C9.7357 4.85953 9.46774 4.88403 9.2972 5.05456L5.05456 9.2972C4.88402 9.46774 4.85952 9.73571 4.99631 9.93434L7.93662 14.2041C6.82624 15.9868 5.99546 17.962 5.50591 20.0683L0.409309 21.0083C0.172145 21.052 0 21.2588 0 21.5V27.5C0 27.7412 0.172145 27.948 0.40931 27.9917L5.50594 28.9317C5.9955 31.038 6.8263 33.0132 7.93668 34.7959L4.99632 39.0656C4.85953 39.2643 4.88403 39.5322 5.05456 39.7028L9.2972 43.9454C9.46774 44.1159 9.73571 44.1404 9.93434 44.0037L14.2042 41.0633C15.9868 42.1737 17.962 43.0045 20.0683 43.494L21.0083 48.5907C21.052 48.8279 21.2588 49 21.5 49H27.5C27.7412 49 27.948 48.8279 27.9917 48.5907L28.9317 43.494C31.038 43.0045 33.0133 42.1737 34.7959 41.0633L39.0657 44.0037C39.2643 44.1405 39.5323 44.116 39.7028 43.9454L43.9454 39.7028C44.116 39.5323 44.1405 39.2643 44.0037 39.0657L41.0633 34.7959C42.1737 33.0132 43.0045 31.038 43.4941 28.9317L48.5907 27.9917C48.8279 27.948 49 27.7412 49 27.5V21.5C49 21.2588 48.8279 21.052 48.5907 21.0083L43.4941 20.0683C43.0045 17.962 42.1738 15.9868 41.0634 14.2041L44.0037 9.9343C44.1405 9.73567 44.116 9.4677 43.9454 9.29717L39.7028 5.05453C39.5323 4.88399 39.2643 4.85949 39.0657 4.99628L34.796 7.93665C33.0133 6.82621 31.038 5.9954 28.9317 5.50587L27.9917 0.409309C27.948 0.172144 27.7412 0 27.5 0H21.5ZM20.9917 6.01244L21.9162 1H27.0838L28.0083 6.01244C28.045 6.21118 28.1976 6.36832 28.3952 6.41066C30.6159 6.88645 32.6888 7.76092 34.5356 8.95581C34.7053 9.06559 34.9243 9.06243 35.0908 8.94781L39.29 6.05596L42.944 9.70995L40.0522 13.9093C39.9376 14.0757 39.9344 14.2948 40.0442 14.4645C41.239 16.3113 42.1135 18.3842 42.5893 20.6048C42.6317 20.8024 42.7888 20.9551 42.9875 20.9917L48 21.9162V27.0838L42.9875 28.0083C42.7888 28.0449 42.6317 28.1976 42.5893 28.3952C42.1135 30.6158 41.239 32.6887 40.0442 34.5355C39.9344 34.7052 39.9376 34.9243 40.0522 35.0907L42.944 39.29L39.29 42.944L35.0907 40.0522C34.9242 39.9376 34.7052 39.9344 34.5355 40.0442C32.6887 41.239 30.6158 42.1134 28.3952 42.5892C28.1976 42.6316 28.0449 42.7887 28.0083 42.9874L27.0838 48H21.9162L20.9917 42.9874C20.9551 42.7887 20.8024 42.6316 20.6048 42.5892C18.3842 42.1134 16.3113 41.239 14.4645 40.0442C14.2949 39.9344 14.0758 39.9376 13.9094 40.0522L9.70999 42.944L6.056 39.29L8.94784 35.0907C9.06246 34.9243 9.06562 34.7052 8.95584 34.5355C7.76101 32.6887 6.88654 30.6158 6.41072 28.3952C6.36837 28.1976 6.21124 28.0449 6.0125 28.0083L1 27.0838V21.9162L6.01247 20.9917C6.21121 20.9551 6.36834 20.8024 6.41069 20.6048C6.88651 18.3842 7.76095 16.3113 8.95578 14.4645C9.06556 14.2948 9.0624 14.0757 8.94778 13.9093L6.05599 9.70999L9.70998 6.05599L13.9093 8.94781C14.0757 9.06243 14.2948 9.06559 14.4644 8.95581C16.3112 7.76092 18.3841 6.88645 20.6048 6.41066C20.8024 6.36832 20.955 6.21118 20.9917 6.01244Z" fill="#BDA17E"/>
</svg>
