<svg width="88" height="87" viewBox="0 0 88 87" fill="none" xmlns="http://www.w3.org/2000/svg">
<path fill-rule="evenodd" clip-rule="evenodd" d="M75.9993 0.0416676C78.5917 0.280396 81.1404 1.53645 83.6964 3.76665C85.7013 5.51603 87.1007 7.45137 87.6916 9.63887C88.2917 11.8607 87.969 14.0132 87.1295 16.0067C85.5481 19.7615 81.9004 23.4361 77.9586 27.0764L44.6893 59.7883C44.3422 60.1296 43.9104 60.3739 43.4375 60.4965L25.3998 65.174C24.4516 65.4199 23.4429 65.1516 22.7461 64.4682C22.0493 63.7847 21.7678 62.7875 22.0055 61.8448L26.7231 43.1349C26.848 42.6395 27.1094 42.1884 27.4782 41.832L60.5009 9.91514C60.5292 9.88778 60.5581 9.86102 60.5876 9.83488C61.4595 9.0614 62.2991 8.17589 63.2475 7.17574C63.6187 6.78426 64.0065 6.37521 64.4195 5.94843C65.7976 4.5243 67.4072 2.96073 69.2446 1.81037C71.126 0.632481 73.3835 -0.199222 75.9993 0.0416676ZM76.0648 21.2691C79.0934 18.3442 81.1315 15.9674 82.008 13.8862C82.4866 12.7499 82.5455 11.8586 82.3305 11.0624C82.1061 10.2319 81.4937 9.17498 80.0298 7.89774C78.0505 6.1707 76.5625 5.62011 75.4861 5.52099C74.4331 5.42402 73.3899 5.72326 72.2079 6.46329C70.9819 7.23086 69.7655 8.37221 68.4244 9.7582C68.1099 10.0832 67.7822 10.4289 67.4451 10.7845C67.1046 11.1437 66.7545 11.513 66.399 11.881L76.0648 21.2691ZM62.4332 15.7324L72.0824 25.1043L41.3112 55.3599L28.5255 58.6755L31.9163 45.2273L62.4332 15.7324ZM13.2646 10.2351C13.2831 10.2347 13.3016 10.2345 13.3201 10.2345H35.7978C37.3304 10.2345 38.5728 11.4664 38.5728 12.986C38.5728 14.5055 37.3304 15.7374 35.7978 15.7374H13.35C11.5932 15.778 9.56259 16.4133 8.02417 17.6078C6.54876 18.7535 5.55004 20.3762 5.55004 22.616V75.7191C5.55004 76.8066 6.14885 78.2736 7.40265 79.5185C8.62455 80.7317 10.2361 81.4971 11.9326 81.4971H66.0455C66.8319 81.4971 68.3997 80.8587 69.9364 79.4247C71.4766 77.9874 72.1505 76.5325 72.1505 75.7191C72.1505 73.685 72.1416 71.0927 72.1321 68.3247C72.1109 62.1711 72.0868 55.1487 72.1509 51.4588C72.1774 49.9395 73.441 48.729 74.9734 48.7552C76.5058 48.7814 77.7266 50.0344 77.7002 51.5537C77.637 55.1856 77.6608 62.0844 77.6819 68.2068C77.6915 71.0006 77.7006 73.6327 77.7006 75.7191C77.7006 78.7576 75.7382 81.5675 73.7402 83.4319C71.7388 85.2996 68.8666 87 66.0455 87H11.9326C8.52305 87 5.5558 85.4725 3.47543 83.4069C1.42695 81.373 0 78.5753 0 75.7191V22.616C0 18.4725 1.9613 15.326 4.60218 13.2754C7.17255 11.2795 10.4022 10.2918 13.2646 10.2351Z" fill="#BDA17E"/>
</svg>
