<svg width="89" height="89" viewBox="0 0 89 89" fill="none" xmlns="http://www.w3.org/2000/svg">
<path d="M35.6965 1.51886e-10H10.4659L10.4165 0.0017631C8.70005 0.0630646 6.1947 0.627291 4.04115 2.19939C1.75834 3.86584 0 6.58882 0 10.5153V78.9221L0.00239883 78.9796C0.067055 80.5314 0.603267 82.7701 2.06701 84.6919C3.62481 86.7371 6.13333 88.2728 9.68511 88.2728H45.437L45.4922 88.2706C47.0464 88.2085 49.3242 87.7091 51.2959 86.3242C53.3968 84.8485 55.0668 82.4028 55.0668 78.8644V52.5763C55.0668 51.048 53.8278 49.8091 52.2996 49.8091C50.7713 49.8091 49.5324 51.048 49.5324 52.5763V78.8644C49.5324 80.4177 48.8963 81.2465 48.1148 81.7954C47.2231 82.4218 46.0722 82.6989 45.3188 82.7385H9.68511C7.92391 82.7385 7.01958 82.0604 6.46972 81.3385C5.84125 80.5134 5.57252 79.463 5.53435 78.7976V10.5153C5.53435 8.46461 6.35871 7.35966 7.30426 6.66941C8.3614 5.8977 9.70282 5.57422 10.5709 5.53435H35.6965C37.2248 5.53435 38.4637 4.29544 38.4637 2.76717C38.4637 1.23891 37.2248 1.51886e-10 35.6965 1.51886e-10Z" fill="#BDA17E"/>
<path d="M49.5324 1.51886e-10C48.0041 4.22268e-06 46.7652 1.23891 46.7652 2.76718C46.7652 4.29545 48.0041 5.53435 49.5324 5.53435C67.9695 5.5343 83.0152 20.1093 83.0152 38.7404C83.0152 40.2687 84.2541 41.5076 85.7824 41.5076C87.3107 41.5076 88.5496 40.2687 88.5496 38.7404C88.5496 16.97 70.9426 -5.85851e-05 49.5324 1.51886e-10Z" fill="#BDA17E"/>
<path d="M50.0858 13.8359C48.5576 13.8359 47.3187 15.0748 47.3187 16.603C47.3187 18.1313 48.5576 19.3702 50.0858 19.3702C53.2145 19.3702 58.023 20.6644 62.0326 23.7932C65.9386 26.8412 69.0815 31.6151 69.1796 38.7783C69.2005 40.3065 70.4563 41.5283 71.9844 41.5073C73.5125 41.4864 74.7344 40.2307 74.7134 38.7025C74.5902 29.7055 70.5384 23.4107 65.4373 19.4301C60.4397 15.5303 54.4286 13.8359 50.0858 13.8359Z" fill="#BDA17E"/>
<path d="M21.584 69.1793C20.0557 69.1793 18.8168 70.4183 18.8168 71.9465C18.8168 73.4748 20.0557 74.7137 21.584 74.7137H33.7595C35.2878 74.7137 36.5267 73.4748 36.5267 71.9465C36.5267 70.4183 35.2878 69.1793 33.7595 69.1793H21.584Z" fill="#BDA17E"/>
<path d="M52.5763 41.5072C55.6328 41.5072 58.1106 39.0294 58.1106 35.9728C58.1106 32.9163 55.6328 30.4385 52.5763 30.4385C49.5198 30.4385 47.0419 32.9163 47.0419 35.9728C47.0419 39.0294 49.5198 41.5072 52.5763 41.5072Z" fill="#BDA17E"/>
</svg>
