<svg width="111" height="111" viewBox="0 0 111 111" fill="none" xmlns="http://www.w3.org/2000/svg">
<path d="M18.9941 106V95.24H27.6141V97.8H21.3941L22.0941 97.12V106H18.9941ZM33.8584 106.16C32.7117 106.16 31.6917 105.92 30.7984 105.44C29.9184 104.96 29.2184 104.307 28.6984 103.48C28.1917 102.64 27.9384 101.687 27.9384 100.62C27.9384 99.54 28.1917 98.5867 28.6984 97.76C29.2184 96.92 29.9184 96.2667 30.7984 95.8C31.6917 95.32 32.7117 95.08 33.8584 95.08C34.9917 95.08 36.005 95.32 36.8984 95.8C37.7917 96.2667 38.4917 96.9133 38.9984 97.74C39.505 98.5667 39.7584 99.5267 39.7584 100.62C39.7584 101.687 39.505 102.64 38.9984 103.48C38.4917 104.307 37.7917 104.96 36.8984 105.44C36.005 105.92 34.9917 106.16 33.8584 106.16ZM33.8584 103.6C34.3784 103.6 34.845 103.48 35.2584 103.24C35.6717 103 35.9984 102.66 36.2384 102.22C36.4784 101.767 36.5984 101.233 36.5984 100.62C36.5984 99.9933 36.4784 99.46 36.2384 99.02C35.9984 98.58 35.6717 98.24 35.2584 98C34.845 97.76 34.3784 97.64 33.8584 97.64C33.3384 97.64 32.8717 97.76 32.4584 98C32.045 98.24 31.7117 98.58 31.4584 99.02C31.2184 99.46 31.0984 99.9933 31.0984 100.62C31.0984 101.233 31.2184 101.767 31.4584 102.22C31.7117 102.66 32.045 103 32.4584 103.24C32.8717 103.48 33.3384 103.6 33.8584 103.6ZM43.8137 106V97.08L44.5137 97.8H40.1737V95.24H50.5537V97.8H46.2137L46.9137 97.08V106H43.8137ZM56.8076 106.16C55.6609 106.16 54.6409 105.92 53.7476 105.44C52.8676 104.96 52.1676 104.307 51.6476 103.48C51.1409 102.64 50.8876 101.687 50.8876 100.62C50.8876 99.54 51.1409 98.5867 51.6476 97.76C52.1676 96.92 52.8676 96.2667 53.7476 95.8C54.6409 95.32 55.6609 95.08 56.8076 95.08C57.9409 95.08 58.9542 95.32 59.8476 95.8C60.7409 96.2667 61.4409 96.9133 61.9476 97.74C62.4542 98.5667 62.7076 99.5267 62.7076 100.62C62.7076 101.687 62.4542 102.64 61.9476 103.48C61.4409 104.307 60.7409 104.96 59.8476 105.44C58.9542 105.92 57.9409 106.16 56.8076 106.16ZM56.8076 103.6C57.3276 103.6 57.7942 103.48 58.2076 103.24C58.6209 103 58.9476 102.66 59.1876 102.22C59.4276 101.767 59.5476 101.233 59.5476 100.62C59.5476 99.9933 59.4276 99.46 59.1876 99.02C58.9476 98.58 58.6209 98.24 58.2076 98C57.7942 97.76 57.3276 97.64 56.8076 97.64C56.2876 97.64 55.8209 97.76 55.4076 98C54.9942 98.24 54.6609 98.58 54.4076 99.02C54.1676 99.46 54.0476 99.9933 54.0476 100.62C54.0476 101.233 54.1676 101.767 54.4076 102.22C54.6609 102.66 54.9942 103 55.4076 103.24C55.8209 103.48 56.2876 103.6 56.8076 103.6ZM64.8535 106V95.24H70.3535C71.7002 95.24 72.7535 95.4867 73.5135 95.98C74.2735 96.46 74.6535 97.14 74.6535 98.02C74.6535 98.9 74.2935 99.5933 73.5735 100.1C72.8668 100.593 71.9268 100.84 70.7535 100.84L71.0735 100.12C72.3802 100.12 73.3535 100.36 73.9935 100.84C74.6468 101.32 74.9735 102.02 74.9735 102.94C74.9735 103.887 74.6135 104.633 73.8935 105.18C73.1735 105.727 72.0735 106 70.5935 106H64.8535ZM67.7135 103.88H70.3335C70.9068 103.88 71.3335 103.787 71.6135 103.6C71.9068 103.4 72.0535 103.1 72.0535 102.7C72.0535 102.287 71.9202 101.987 71.6535 101.8C71.3868 101.6 70.9668 101.5 70.3935 101.5H67.7135V103.88ZM67.7135 99.66H70.0735C70.6202 99.66 71.0268 99.56 71.2935 99.36C71.5735 99.16 71.7135 98.8733 71.7135 98.5C71.7135 98.1133 71.5735 97.8267 71.2935 97.64C71.0268 97.4533 70.6202 97.36 70.0735 97.36H67.7135V99.66ZM82.3349 106.16C81.1883 106.16 80.1683 105.92 79.2749 105.44C78.3949 104.96 77.6949 104.307 77.1749 103.48C76.6683 102.64 76.4149 101.687 76.4149 100.62C76.4149 99.54 76.6683 98.5867 77.1749 97.76C77.6949 96.92 78.3949 96.2667 79.2749 95.8C80.1683 95.32 81.1883 95.08 82.3349 95.08C83.4683 95.08 84.4816 95.32 85.3749 95.8C86.2683 96.2667 86.9683 96.9133 87.4749 97.74C87.9816 98.5667 88.2349 99.5267 88.2349 100.62C88.2349 101.687 87.9816 102.64 87.4749 103.48C86.9683 104.307 86.2683 104.96 85.3749 105.44C84.4816 105.92 83.4683 106.16 82.3349 106.16ZM82.3349 103.6C82.8549 103.6 83.3216 103.48 83.7349 103.24C84.1483 103 84.4749 102.66 84.7149 102.22C84.9549 101.767 85.0749 101.233 85.0749 100.62C85.0749 99.9933 84.9549 99.46 84.7149 99.02C84.4749 98.58 84.1483 98.24 83.7349 98C83.3216 97.76 82.8549 97.64 82.3349 97.64C81.8149 97.64 81.3483 97.76 80.9349 98C80.5216 98.24 80.1883 98.58 79.9349 99.02C79.6949 99.46 79.5749 99.9933 79.5749 100.62C79.5749 101.233 79.6949 101.767 79.9349 102.22C80.1883 102.66 80.5216 103 80.9349 103.24C81.3483 103.48 81.8149 103.6 82.3349 103.6ZM90.2089 102.112L89.7129 94.8H92.6889L92.1929 102.112H90.2089ZM91.2009 106.128C90.7529 106.128 90.3849 105.984 90.0969 105.696C89.8089 105.408 89.6649 105.067 89.6649 104.672C89.6649 104.267 89.8089 103.931 90.0969 103.664C90.3849 103.387 90.7529 103.248 91.2009 103.248C91.6595 103.248 92.0275 103.387 92.3049 103.664C92.5929 103.931 92.7369 104.267 92.7369 104.672C92.7369 105.067 92.5929 105.408 92.3049 105.696C92.0275 105.984 91.6595 106.128 91.2009 106.128Z" fill="#BDA17E"/>
<path fill-rule="evenodd" clip-rule="evenodd" d="M56.3117 8.90307L40.3793 23.8938C39.8121 24.4422 39.0702 25.5432 38.8619 26.8532C38.6767 28.0175 38.8643 29.5916 40.5294 31.4426C43.7342 35.0052 46.625 34.1623 47.5644 33.6246L58.4367 23.1865C58.4709 23.1537 58.5059 23.1217 58.5417 23.0907L62.4157 19.7349C63.5761 18.7298 65.323 18.8656 66.3176 20.0383C67.3122 21.2109 67.1778 22.9763 66.0174 23.9814L64.4122 25.3719L80.5626 41.6933C80.8182 41.9516 81.0212 42.2579 81.1602 42.5951L81.8343 44.23H91.6116V14.0409C91.6116 12.4964 92.8505 11.2444 94.3788 11.2444H105.613C106.483 11.1852 107.775 11.3167 108.936 12.1001C110.418 13.1011 111.168 14.8123 110.968 16.836C110.929 17.2299 110.894 18.9318 110.875 21.6886C110.858 24.3534 110.856 27.822 110.864 31.5827C110.88 39.1024 110.936 47.7655 110.982 53.4482L110.982 53.4712C110.982 54.9904 110.386 56.9796 108.788 58.5946C107.131 60.2687 104.643 61.3013 101.297 61.3013C97.9502 61.3013 95.4623 60.2687 93.8057 58.5946C92.2076 56.9796 91.6116 54.9904 91.6116 53.4712V49.8229H82.6068C82.3738 51.5521 81.8782 53.072 81.1292 54.3806C79.9794 56.3892 78.3394 57.7112 76.5611 58.5097C74.262 59.5421 71.7507 59.7015 69.6035 59.4818C69.0674 60.7818 68.2583 62.041 67.2978 63.1041C65.4693 65.1279 62.6997 66.8814 59.2357 66.8814C56.2302 66.8814 53.7938 65.8781 52.0547 64.7091C51.4281 65.1505 50.7375 65.535 50.0802 65.8617C48.2724 66.7604 46.1695 67.4879 44.7805 67.8912C44.532 67.9634 44.2747 68 44.0162 68C40.7765 68 37.9177 66.4417 35.499 64.5943C33.166 62.8123 30.9047 60.4903 28.8059 58.3351C28.7218 58.2488 28.638 58.1627 28.5545 58.077C26.3102 55.7735 24.2344 53.6697 22.1452 52.122C21.1663 51.3967 20.2524 50.8462 19.3884 50.466V53.4583C19.3884 54.9776 18.7924 56.9668 17.1943 58.5818C15.5377 60.2559 13.0497 61.2885 9.70327 61.2885C6.35679 61.2885 3.86882 60.2559 2.21223 58.5818C0.614189 56.9668 0.0181621 54.9776 0.0181671 53.4583L0.0182603 53.4354C0.0643519 47.7527 0.119653 39.0896 0.135779 31.5699C0.143843 27.8091 0.142094 24.3406 0.124591 21.6757C0.106485 18.919 0.0708826 17.2171 0.0319001 16.8231C-0.168349 14.7994 0.581924 13.0882 2.06442 12.0873C3.22477 11.3039 4.51685 11.1724 5.3866 11.2316H16.6212C18.1495 11.2316 19.3884 12.4836 19.3884 14.028V44.5756C21.6088 45.1276 23.6238 46.2825 25.4173 47.6113C27.9286 49.4717 30.3149 51.9122 32.498 54.153L32.6064 54.2642C34.8218 56.5382 36.8329 58.6024 38.836 60.1324C40.7159 61.5683 42.2818 62.2874 43.6607 62.3933C44.8267 62.0333 46.3713 61.4724 47.6374 60.8431C48.3306 60.4985 48.8193 60.1922 49.1037 59.96C49.3504 59.0884 50.008 58.3731 50.8893 58.0762C52.0192 57.6956 53.2634 58.0883 53.9781 59.0513C54.3791 59.5917 56.2668 61.2885 59.2357 61.2885C60.7526 61.2885 62.1337 60.5251 63.2108 59.333C64.3601 58.0609 64.77 56.7454 64.77 56.2548C64.77 55.3787 65.1763 54.5533 65.8677 54.0247C66.559 53.4961 67.4555 53.3255 68.2898 53.5637C70.0711 54.0725 72.5154 54.2062 74.3138 53.3986C75.1459 53.025 75.8373 52.4559 76.3386 51.58C76.8117 50.7536 77.2033 49.4982 77.2256 47.5937L76.2621 45.2569L60.293 29.1187L51.1797 37.868C51.0729 37.9706 50.9581 38.0644 50.8364 38.1485C48.0738 40.0587 41.8933 41.2733 36.4343 35.2048C33.6719 32.134 32.9372 28.861 33.3977 25.9656C33.8339 23.2227 35.2995 21.0563 36.576 19.8307L36.5963 19.8115L52.6459 4.71049C52.7125 4.64784 52.7821 4.58854 52.8545 4.53281C57.1822 1.20056 68.647 -3.7569 78.951 4.57354C78.9589 4.57993 78.9667 4.58637 78.9746 4.59285L85.0623 9.62642C86.2452 10.6044 86.4195 12.3662 85.4518 13.5616C84.484 14.7569 82.7407 14.9331 81.5578 13.9551L75.4823 8.93169C68.1525 3.01614 59.7947 6.28303 56.3117 8.90307ZM49.2939 59.7794C49.2962 59.7794 49.2836 59.7967 49.2487 59.8313C49.274 59.7967 49.2915 59.7794 49.2939 59.7794ZM39.4803 6.28936C39.7557 6.18654 40.2714 6.01667 40.8522 5.87375C41.4801 5.71924 42.016 5.63854 42.3559 5.63854C43.8842 5.63854 45.1231 4.38651 45.1231 2.84206C45.1231 1.29761 43.8842 0.0455903 42.3559 0.0455903C40.5095 0.0455903 38.3159 0.757254 37.5103 1.06259C37.4915 1.0697 37.4728 1.07702 37.4542 1.08455C32.4615 3.10277 27.3306 7.82354 25.4094 9.86218C24.3554 10.9806 24.3981 12.7507 25.5048 13.8158C26.6115 14.881 28.363 14.8378 29.417 13.7194C31.1809 11.8477 35.6248 7.85896 39.4803 6.28936ZM5.57577 16.8245C5.62196 17.798 5.64503 19.5396 5.65882 21.6386C5.67648 24.3279 5.67819 27.8155 5.67011 31.582C5.65397 39.1092 5.59868 47.7745 5.55256 53.4644C5.55493 53.6299 5.65415 54.1505 6.12561 54.627C6.54439 55.0502 7.51539 55.6955 9.70327 55.6955C11.8911 55.6955 12.8621 55.0502 13.2809 54.627C13.7583 54.1446 13.854 53.617 13.854 53.4583V16.8245H5.57577ZM105.424 16.8374H97.146V53.4712C97.146 53.6298 97.2417 54.1574 97.7191 54.6398C98.1378 55.063 99.1088 55.7083 101.297 55.7083C103.485 55.7083 104.456 55.063 104.874 54.6398C105.346 54.1633 105.445 53.6428 105.447 53.4772C105.401 47.7873 105.346 39.122 105.33 31.5948C105.322 27.8284 105.324 24.3407 105.341 21.6514C105.355 19.5524 105.378 17.8108 105.424 16.8374Z" fill="#BDA17E"/>
</svg>
