<svg width="179" height="146" viewBox="0 0 179 146" fill="none" xmlns="http://www.w3.org/2000/svg">
<path d="M11.5 82V132.5H59.5M2 43.5L12.75 52M59.5 120H23.5V97.5M59.5 120H104.5M59.5 120C59.5 116.053 58.2362 112.75 56.1437 110M104.5 120L116 132.25M104.5 120H177M127.5 144.5L116 132.25M116 132.25H163M12.75 52L23.5 60.5V97.5M12.75 52V11.5M23.5 97.5C25.9385 97.5677 28.8725 97.8268 32 98.341M56.1437 110H159.5M56.1437 110C53.6768 106.757 50.0579 104.283 46 102.425M32 98.341V2M32 98.341C36.5677 99.0919 41.5481 100.387 46 102.425M46 102.425V21" stroke="#353130" stroke-width="3" stroke-linecap="round"/>
</svg>
