<svg width="1674" height="339" viewBox="0 0 1674 339" fill="none" xmlns="http://www.w3.org/2000/svg">
<path fill-rule="evenodd" clip-rule="evenodd" d="M867.049 6.49357C860.617 15.0349 854.391 20.1828 839.954 28.8962C827.725 36.2777 825.682 38.6596 831.58 38.6596C838.157 38.6596 852.34 32.519 859.998 26.3571C865.792 21.6955 867.896 18.9881 870.18 13.2565C871.763 9.28205 872.886 4.56932 872.675 2.78225C872.313 -0.269369 871.971 -0.0448942 867.049 6.49357ZM1538.92 0.935314C1538.93 1.45036 1540.08 5.50214 1541.47 9.94176C1544.72 20.3337 1545.83 37.6894 1544.1 51.1305C1543.35 56.9606 1542.35 66.7153 1541.88 72.8086C1541.18 81.9996 1541.33 83.7916 1542.77 83.3314C1545.03 82.6169 1549.4 69.3865 1551.46 57.0541C1552.35 51.7378 1553.46 47.3892 1553.94 47.3892C1557.17 47.3892 1557.17 76.4837 1553.94 91.6607C1550.05 109.987 1544.64 123.708 1529.23 154.327L1514.64 183.321H1509.33H1504.02L1506.55 176.904C1507.94 173.375 1509.66 169.413 1510.36 168.1C1513.4 162.419 1523.94 134.42 1523.94 132.024C1523.94 129.839 1523.62 129.652 1522.09 130.926C1519.72 132.891 1487.77 180.574 1487.77 182.143C1487.77 182.791 1485.8 183.321 1483.38 183.321H1478.99L1487.83 166.798C1514.07 117.705 1526.67 89.3873 1534.51 61.9028C1538.21 48.9032 1538.64 43.7764 1535.81 46.1209C1531.24 49.9121 1497.61 111.854 1475.19 157.756L1460.57 187.686L1449.54 192.864C1441.44 196.667 1436.41 200.092 1430.62 205.745C1423.3 212.891 1412.35 228.043 1413.6 229.294C1413.9 229.595 1416.82 227.347 1420.09 224.301C1432.04 213.16 1446.04 205.344 1463.7 199.944C1473.88 196.835 1476.26 196.595 1496.5 196.657C1513.47 196.706 1521.52 197.325 1532.67 199.434C1540.56 200.925 1555.01 202.482 1564.78 202.893C1580.69 203.563 1582.56 203.873 1582.56 205.853C1582.56 207.259 1581.31 208.329 1579.13 208.791C1577.24 209.19 1558.02 209.389 1536.41 209.235C1499.68 208.972 1491.51 209.459 1491.51 211.915C1491.51 213.945 1518.65 221.168 1538.91 224.53C1548.61 226.14 1571.54 226.795 1581.31 225.741C1586.63 225.166 1586.94 225.305 1587.31 228.447C1587.67 231.611 1587.37 231.801 1580.46 232.664C1570.61 233.893 1539.67 232.412 1525.19 230.017C1508.84 227.314 1467.26 226.206 1455.64 228.165C1450.68 229.003 1445.46 230.622 1444.05 231.761C1440.47 234.659 1436.8 246.636 1435.12 260.884C1434.12 269.404 1434.09 273.824 1435.01 275.849C1436.24 278.548 1436.42 278.379 1437.85 273.112C1438.69 270.025 1441.9 260.624 1444.99 252.223C1450.04 238.49 1450.91 236.946 1453.6 236.946C1455.24 236.946 1456.59 237.129 1456.59 237.355C1456.59 237.58 1455.17 241.272 1453.42 245.562C1444.77 266.849 1440.05 297.024 1443.09 311.675C1444 316.08 1445.31 319.871 1446.01 320.099C1446.71 320.326 1448.52 315.319 1450.03 308.971C1453.18 295.786 1460.5 274.988 1469.01 255.029C1474.21 242.855 1475.24 241.266 1478.2 240.917C1480.03 240.7 1481.54 240.762 1481.54 241.055C1481.54 241.35 1478.22 248.595 1474.18 257.158C1464.93 276.722 1458.35 294.208 1455.96 305.598C1453.99 314.92 1453.45 328.006 1455.03 327.951C1455.55 327.933 1458.49 321.386 1461.58 313.401C1464.67 305.417 1473.72 286.492 1481.71 271.344L1496.22 243.805L1527.85 244.242C1562.15 244.715 1575.79 243.529 1583.96 239.36C1586.75 237.938 1589.18 236.951 1589.37 237.171C1589.55 237.39 1591.53 243.182 1593.77 250.04C1602.43 276.535 1620.55 306.247 1635.23 318.007C1642.86 324.122 1659.67 333.603 1660.82 332.445C1661.22 332.049 1661.31 331.554 1661.02 331.344C1642.14 317.503 1626.05 295.459 1613.96 266.866C1603.24 241.489 1597.41 216.052 1587.56 151.521C1579.93 101.589 1577.29 87.0515 1572.58 69.2132C1564.03 36.8489 1547.02 0 1540.63 0C1539.68 0 1538.91 0.421515 1538.92 0.935314ZM87.8154 2.1375C76.0034 3.76744 57.2596 9.32445 57.2596 11.1951C57.2596 11.6789 59.926 11.6365 63.1837 11.1003C73.4255 9.41424 104.849 9.85072 116.239 11.8361C155.239 18.6377 183.12 37.0933 197.36 65.5356C204.984 80.7612 206.308 87.0041 206.207 107.249C206.129 123.232 205.722 126.626 202.715 136.478C190.447 176.67 158.144 211.109 109.017 236.374C93.7732 244.213 91.653 245.676 95.5329 245.676C107.478 245.676 143.267 229.679 160.775 216.515C173.424 207.005 191.938 188.108 198.795 177.71C210.929 159.308 219.571 134.332 221.403 112.367C224.081 80.2536 207.238 44.794 180.194 25.6139C155.37 8.00753 116.624 -1.83945 87.8154 2.1375ZM1553.87 4.10291C1553.87 5.06815 1557.73 13.9399 1562.44 23.8181C1570.87 41.4805 1578.68 63.2783 1583.63 82.9311C1585.01 88.4183 1590.09 113.672 1594.9 139.05C1605.38 194.213 1611.08 215.746 1615.22 215.746C1617.54 215.746 1615.42 174.371 1611.87 150.274C1602.51 86.8245 1590.96 48.4592 1573.17 21.7167C1565.53 10.2398 1553.87 -0.402807 1553.87 4.10291ZM708.479 5.12053C698.165 6.51477 687.351 10.1887 683.082 13.7466C680.24 16.1161 680.319 16.1298 697.061 16.1847C708.751 16.2246 721.768 17.3607 739.64 19.9047C778.027 25.367 799.999 26.846 815.176 24.9866C828.015 23.414 846.873 17.8819 847.624 15.4676C847.912 14.5435 842.07 13.8214 829.613 13.2428C808.855 12.2775 795.586 10.9868 769.477 7.39646C747.86 4.42341 721.041 3.42325 708.479 5.12053ZM524.153 6.82904C512.432 8.95656 507.526 10.6164 496.105 16.3231C467.164 30.7818 437.232 66.2963 420.488 106.042C405.651 141.264 400.743 168.224 401.833 208.533C402.524 234.124 404.4 245.906 410.859 265.247C419.377 290.758 440.614 310.017 469.059 318.029C479.239 320.896 503.749 322.905 503.749 320.872C503.749 320.177 498.619 319.297 492.212 318.895C463.405 317.084 441.833 301.587 427.605 272.488C420.088 257.113 416.877 244.066 414.942 221.046C411.456 179.545 419.497 139.212 439.12 99.7668C453.91 70.0375 464.582 56.1338 484.331 40.8732C497.382 30.788 514.034 22.3216 528.069 18.6389C549.001 13.1443 574.471 16.0425 590.718 25.7673C599.019 30.7356 611.726 42.8274 616.102 49.9233C619.63 55.6437 621.359 56.2797 620.233 51.4422C616.369 34.8336 602.891 20.9186 582.345 12.3287C565.594 5.3263 543.791 3.26487 524.153 6.82904ZM317.532 19.684C316.21 42.7713 307.88 77.5749 289.854 135.309C276.234 178.935 270.009 206.767 268.002 233C265.494 265.8 272.354 295.066 287.331 315.469C291.52 321.174 295.453 324.03 293.833 320.189C285.548 300.547 282.728 289.874 280.403 269.37C276.77 237.309 282.352 203.497 301.099 144.038C321.147 80.4444 326.552 53.1782 324.061 28.2091C322.931 16.8905 320.59 6.23542 319.233 6.23542C318.72 6.23542 317.954 12.2875 317.532 19.684ZM1235.84 7.08593C1218.7 8.85929 1194.64 16.3979 1190.18 21.3912C1187.86 23.9814 1187.87 24.0126 1190.32 23.2694C1197.07 21.2204 1212.01 18.6626 1224.77 17.3719C1254.41 14.3727 1284.39 19.8386 1308.08 32.5651C1330.8 44.7753 1343.47 58.7664 1350.2 79.0926C1353.13 87.9107 1353.55 91.1881 1353.57 105.379C1353.6 119.93 1353.24 122.612 1350.13 131.567C1344.86 146.71 1337.49 157.582 1322.26 172.681C1307.17 187.649 1280.91 203.409 1256.46 212.179C1251.98 213.785 1248.31 215.606 1248.31 216.225C1248.31 216.858 1251.71 216.993 1256.1 216.534C1278.5 214.193 1309.28 201.263 1327.81 186.414C1352.82 166.37 1366.6 142.302 1369.52 113.577C1370.62 102.72 1370.51 98.4361 1368.91 89.3224C1364.37 63.5801 1347.43 40.0551 1322.67 25.1225C1300.53 11.77 1263.97 4.17649 1235.84 7.08593ZM1062.06 22.1682C1059.12 67.0483 1032.85 148.147 1007.86 189.521C991.583 216.474 957.468 254.998 943.603 262.086C932.479 267.773 926.286 263.342 922.004 246.635C918.833 234.255 918.838 193.03 922.014 172.098C929.514 122.676 948.845 66.9772 971.709 28.9174C975.134 23.2157 977.656 18.2698 977.312 17.9268C975.637 16.252 952.316 49.4332 942.52 67.4299C927.667 94.7173 915.255 132.68 908.909 170.227C905.114 192.681 905.076 221.864 908.817 241.934C912.004 259.036 915.614 270.069 919.309 274.002C925.656 280.757 937.195 280.164 951.161 272.363C961.081 266.821 970.342 258.219 985.04 240.894C998.002 225.614 1004.79 216.031 1012.55 202.028C1016.15 195.54 1017.53 193.821 1017.07 196.416C1015.09 207.497 1012.45 230.295 1011.81 241.851C1010.97 256.811 1010.16 258.603 998.201 272.07C977.845 294.983 959.667 305.774 935.627 309.215C912.211 312.566 893.012 299.107 885.011 273.735C879.604 256.59 878.524 247.107 878.554 216.993C878.578 192.101 879.002 185.39 881.374 172.439C884.847 153.471 890.082 133.039 896.539 113.237C903.506 91.8777 901.745 91.561 891.059 112.248C877.251 138.981 867.677 173.228 865.527 203.575C864.042 224.549 865.914 262.586 869.019 274.538C874.195 294.458 883.233 307.118 897.706 314.723C913.048 322.785 927.235 324.672 944.99 321.015C968.212 316.229 989.637 304.052 1005.25 286.768L1014.26 276.79L1016.94 285.239C1020.33 295.954 1027.71 310.039 1033.42 316.705C1035.85 319.544 1038.04 321.661 1038.29 321.409C1038.55 321.158 1036.84 316.221 1034.49 310.438C1026.36 290.364 1022.96 264.26 1025.07 238.131C1027.5 208.031 1031.68 189.914 1046.89 143.415C1063.13 93.7995 1068.73 68.0447 1068.7 43.2127C1068.68 30.4226 1066.54 16.2907 1063.91 11.5817C1063.27 10.4531 1062.56 14.5572 1062.06 22.1682ZM872.495 19.3186C866.936 28.1155 853.663 39.4403 842.419 44.9774C816.543 57.7201 787.084 59.5408 742.583 51.1467C709.464 44.8988 680.348 43.2127 666.751 46.7545C662.825 47.7771 656.392 50.245 652.457 52.2404L645.303 55.8669L660.935 55.1997C674.866 54.6049 679.823 55.0413 706.457 59.2128C722.896 61.7881 736.767 64.276 737.28 64.7437C738.449 65.8062 731.973 88.654 720.668 123.359C693.348 207.223 688.744 256.791 704.711 295.143C708.505 304.255 720.38 322.541 721.668 321.253C722.053 320.867 720.85 317.17 718.994 313.034C712.434 298.416 709.369 283.077 708.627 261.137C707.3 221.95 710.649 204.021 732.591 132.815C742.179 101.696 747.4 82.1929 748.881 71.9443C749.537 67.4037 750.191 66.1154 751.568 66.6442C752.569 67.0283 753.623 67.3426 753.91 67.3426C754.197 67.3426 754.429 68.6059 754.425 70.1485C754.412 74.9037 743.495 127.342 740.728 135.932C734.016 156.771 725.692 201.226 728.06 203.593C729.615 205.148 732.48 199.591 740.563 179.331C758.688 133.904 769.202 99.4475 770.277 81.9509C770.689 75.2391 771.508 69.4514 772.094 69.0885C772.681 68.7256 774.336 68.8017 775.773 69.2569C778.159 70.0151 778.311 70.6947 777.539 77.1322C775.999 89.9709 772.051 105.914 759.927 148.266C739.345 220.168 734.831 240.565 732.434 272.488C731.664 282.749 731.765 283.568 733.613 282.037C738.061 278.353 764.826 190.578 776.182 142.438C780.94 122.268 784.351 97.3886 784.357 82.8039L784.363 70.2046L796.467 69.3541C812.81 68.2056 824.197 65.4956 836.121 59.9174C856.934 50.1827 869.521 37.1569 876.081 18.5641C878.356 12.1167 876.844 12.4347 872.495 19.3186ZM71.6021 18.1513C55.9176 20.8014 40.1471 25.7386 27.9509 31.8181C16.7712 37.3901 7.45484 44.1468 8.92526 45.6159C9.35055 46.0411 14.333 44.602 19.9977 42.4171C40.9241 34.3472 68.5079 30.4364 96.5456 31.5637C106.219 31.9528 117.344 33.1525 121.489 34.2549C145.143 40.5427 171.324 59.774 178.842 76.3802C183.17 85.9428 185.719 100.347 185.719 115.242C185.719 130.68 184.228 138.647 179.291 149.602C174.305 160.663 175.236 162.978 181.299 154.587C191.507 140.462 198.191 119.118 198.191 100.642C198.191 89.7776 194.575 74.5682 189.992 66.1466C178.611 45.2392 151.567 25.4006 125.343 18.7237C113.565 15.7245 87.6021 15.4489 71.6021 18.1513ZM329.992 17.095C329.577 17.7672 329.839 20.4958 330.575 23.1584C333.671 34.3721 325.43 86.0962 312.866 134.307C303.236 171.26 297.872 201.187 300.422 203.736C303.942 207.257 336.769 117.066 341.144 91.8515C343.964 75.5945 342.999 44.9811 339.31 33.6713C336.315 24.4927 331.126 15.2606 329.992 17.095ZM1074.24 37.8839C1074.1 63.7759 1067.36 104.875 1057.91 137.486C1050.65 162.562 1048.89 169.557 1046.27 183.851C1043.69 197.925 1043.08 207.017 1044.71 207.014C1047.3 207.007 1060.4 181.539 1066.04 165.563C1072.53 147.175 1084.76 101.59 1086.3 90.0819C1088.06 76.8242 1087.07 48.125 1084.53 39.0786C1082.37 31.3854 1077.61 21.5284 1075.7 20.7964C1074.75 20.4322 1074.3 25.6525 1074.24 37.8839ZM534.305 23.0524C516.726 26.9383 502.652 33.3483 488.826 43.7664C460.29 65.2674 441.35 99.0048 432.098 144.819C427.287 168.642 428.208 181.997 433.292 162.121C443.849 120.85 472.339 74.9049 499.384 55.5339C532.732 31.6498 568.762 29.7791 591.202 50.7688C602.645 61.4713 606.9 75.804 603.07 90.7504C599.128 106.142 590.777 117.31 579.069 122.847C575.37 124.597 572.343 126.365 572.343 126.775C572.343 127.185 574.697 127.145 577.573 126.685C595.037 123.893 611.26 104.754 614.997 82.5371C616.335 74.5719 616.253 72.3521 614.35 65.0779C610.093 48.8171 599.388 35.9347 584.049 28.6156C569.317 21.5845 550.477 19.4782 534.305 23.0524ZM693.943 22.5323C678.676 24.3805 664.159 30.6047 656.619 38.5349C652.049 43.3412 652.869 44.3077 659.142 41.508C663.33 39.6398 668.108 39.3405 693.32 39.3667C713.458 39.3867 727.311 40.0389 737.594 41.4469C761.311 44.6968 776.907 45.4076 786.159 43.6617C790.659 42.8137 794.341 41.7112 794.341 41.2124C794.341 38.3204 763.201 30.3977 730.735 25.0277C711.061 21.7729 704.111 21.3015 693.943 22.5323ZM1215.26 23.8717C1187.8 27.361 1162.1 40.2397 1148.6 57.2898C1146.47 59.9723 1145.19 62.4503 1145.75 62.7932C1146.3 63.1374 1150.38 61.1184 1154.8 58.3074C1169.25 49.1202 1190.83 41.7 1212.19 38.5773C1226.86 36.4323 1259.96 37.743 1272.01 40.9455C1290.26 45.7954 1305.23 52.9712 1313.58 60.8789C1319.51 66.4871 1325.6 75.5534 1328.9 83.6694C1334.81 98.2179 1335.03 119.869 1329.38 130.949C1328.01 133.635 1326.91 136.838 1326.93 138.065C1327.01 141.918 1335.26 131.076 1338.65 122.665C1347.82 99.8915 1345.17 77.313 1331.27 59.5944C1311.04 33.8259 1260.19 18.1663 1215.26 23.8717ZM944.637 43.8201C927.083 62.4266 909.868 94.736 897.436 132.412C888.762 158.7 883.827 191.784 883.702 224.475C883.625 244.697 885.897 256.8 892.951 273.744C898.485 287.034 902.648 292.188 911.176 296.305C917.248 299.235 920.09 299.818 928.548 299.867C938.3 299.921 939.134 299.688 951.89 293.348C961.101 288.77 966.133 285.444 968.454 282.402C970.288 279.999 971.446 277.691 971.03 277.273C970.612 276.857 966.879 278.535 962.733 281.004C943.978 292.176 925.277 293.46 914.834 284.292C902.49 273.455 896.584 236.849 900.255 193.922C904.516 144.057 923.508 88.1352 952.664 39.5949C956.996 32.3818 953.88 34.023 944.637 43.8201ZM1591.94 38.3479C1604.05 66.931 1611.47 98.0408 1617.46 145.285C1626.05 213.059 1629.73 233.953 1636.98 256.276C1641.17 269.151 1654.28 296.806 1656.2 296.806C1657.13 296.806 1657.39 295.76 1656.92 294C1653.43 281.153 1647.79 248.061 1643.04 212.628C1634.11 146.07 1628.01 114.717 1618.03 84.1782C1612.73 67.9324 1603 47.393 1597.52 40.842C1593.41 35.941 1590.34 34.5679 1591.94 38.3479ZM69.1078 38.1932C45.9913 40.4018 21.4669 47.282 6.12535 55.8632C-3.50036 61.2468 -1.64331 62.4079 10.7237 58.7377C20.8832 55.7222 44.7729 49.8871 46.9704 49.8846C51.4066 49.8809 45.6434 73.5668 24.8205 140.921C7.58081 196.679 3.21444 217.909 3.14211 246.299C3.08099 271.054 6.62921 287.362 15.761 304.289C20.4143 312.912 27.2463 322.244 28.2054 321.285C28.5234 320.967 26.8085 315.751 24.3952 309.692C17.4821 292.338 15.5241 279.87 15.6164 253.782C15.7361 219.56 18.9713 203.726 37.2736 147.78C52.423 101.468 58.5068 75.5185 58.5068 57.2025C58.5068 49.4681 58.7487 48.6363 61.0011 48.6363C62.9854 48.6363 63.4942 49.4656 63.4892 52.6893C63.4668 66.1965 52.2908 126.325 46.0475 146.532C42.0852 159.357 34.8104 196.604 34.8104 204.068C34.8104 213.702 37.8934 208.003 51.4315 173.345C60.067 151.238 69.0953 124.339 73.6163 107.249C75.9336 98.4898 76.4175 93.4004 76.405 77.9428C76.395 67.6543 75.7739 56.771 75.0231 53.7593L73.6587 48.2809L85.1015 48.968C149.218 52.8153 178.755 91.5946 154.491 140.07C140.901 167.218 117.493 190.651 75.401 219.242C67.2008 224.812 60.3488 229.227 60.173 229.052C59.9984 228.876 63.7811 214.476 68.579 197.049C85.4944 135.614 88.1472 122.913 89.2921 97.8799C89.9107 84.3653 89.6612 80.4033 87.7979 74.1853C85.8199 67.5808 85.4545 67.0782 84.6301 69.8367C84.1175 71.5515 83.6436 75.5472 83.575 78.7147C83.2532 93.6261 78.6 112.523 61.046 170.227C55.4113 188.746 49.239 210.958 47.3283 219.587C43.2326 238.085 42.4519 239.768 36.1087 243.773C30.802 247.122 28.819 249.417 31.2298 249.417C33.2988 249.417 65.9075 232.866 81.5795 223.86C136.898 192.076 170.221 154.021 174.788 117.419C178.575 87.0715 160.927 57.4245 132.431 46.2606C118.451 40.7847 85.684 36.6094 69.1078 38.1932ZM538.046 44.2378C495.666 53.5186 458.716 101.826 446.329 164.143C442.945 181.163 441.628 215.628 443.778 230.869C447.808 259.424 461.181 281.754 479.192 290C498.206 298.704 524.882 296.673 547.4 284.805C556.29 280.12 567.911 272.005 567.016 271.109C566.704 270.797 561.83 272.776 556.185 275.505C540.888 282.902 525.75 286.024 508.413 285.354C496.777 284.905 493.22 284.275 487.478 281.643C468.182 272.795 459.018 255.697 456.055 223.016C451.342 171.018 469.892 113.165 501.758 80.4694C517.915 63.8919 533.978 56.0714 552.39 55.8195C573.784 55.5264 589.804 66.5631 589.804 81.5968C589.804 97.7652 570.967 118.473 556.26 118.473C552.826 118.473 552.215 118.799 553.409 119.992C554.244 120.828 557.862 121.467 561.457 121.415C574.345 121.229 587.655 111.296 595.017 96.3685C610.667 64.6377 578.654 35.3449 538.046 44.2378ZM1209.03 48.0352C1182.05 52.395 1160 61.379 1141.77 75.4399C1137.01 79.1088 1141.05 78.6935 1151.87 74.4036C1164.49 69.394 1180.83 64.3009 1181.65 65.1215C1182.51 65.977 1174.3 95.1189 1165.39 122.838C1150.41 169.453 1142.8 200.288 1139.85 226.346C1136.3 257.715 1141.34 287.722 1153.56 308.03C1163.01 323.731 1167.4 326.937 1160.9 313.396C1149.02 288.633 1147.18 249.555 1155.95 207.64C1159.79 189.269 1161.85 181.801 1175.03 138.426C1184.78 106.379 1189 89.502 1191.25 73.578C1192.8 62.6835 1193.17 61.697 1195.85 61.3092C1198.73 60.8952 1198.76 61.0099 1197.89 68.7917C1196.04 85.4527 1188.14 125.048 1182.26 147.156C1174.1 177.838 1168.7 207.471 1171 208.894C1172.79 210.002 1176.9 201.836 1185.19 180.701C1206 127.64 1215.15 89.9223 1212.95 66.2339L1212.21 58.265L1232.44 58.9871C1244.12 59.4036 1256.02 60.536 1260.58 61.6646C1289.85 68.9127 1310.98 87.8958 1311.02 106.961C1311.03 112.016 1309.99 115.612 1306.54 122.55C1296.42 142.898 1282.99 154.074 1217.9 196.314C1208.59 202.357 1203.41 205.089 1203.96 203.668C1207.13 195.484 1217.6 159.488 1220.24 147.732C1226.85 118.241 1229.58 90.6032 1227.17 77.5288C1225.66 69.3067 1223.58 63.6013 1222.11 63.6013C1221.64 63.6013 1220.9 68.9401 1220.47 75.4661C1219.2 94.8046 1211.24 126.614 1194.72 178.333C1190.67 191.022 1186.43 205.027 1185.3 209.454C1183.37 217.066 1183.38 217.59 1185.47 219.119C1186.68 220.007 1188.43 220.734 1189.35 220.734C1192.11 220.734 1204.69 227.599 1214.86 234.663C1226.02 242.41 1245.7 258.63 1260.78 272.512C1266.62 277.878 1276.44 286.003 1282.61 290.567C1300.51 303.802 1302.41 303.274 1291.12 288.188C1274.1 265.453 1250.43 239.842 1239.52 232.353C1227.05 223.798 1207.62 215.746 1199.45 215.746C1197.51 215.746 1195.96 215.324 1195.99 214.81C1196.02 214.297 1206.53 208.824 1219.33 202.651C1274.29 176.162 1306.38 151.886 1318.34 127.744C1323.32 117.697 1323.76 116.009 1323.74 107.343C1323.73 101.533 1322.85 95.377 1321.46 91.3514C1315.17 73.1216 1294.16 55.8931 1270.14 49.2773C1259.49 46.3454 1223.95 45.6221 1209.03 48.0352ZM351.143 58.8736C350.855 60.4449 349.69 68.7455 348.555 77.3193C345.986 96.7152 340.396 119.97 329.948 154.713C314.078 207.492 309.308 227.574 306.076 255.195C303.944 273.427 303.684 283.088 305.329 283.088C306.606 283.088 310.273 273.255 322.076 238.193C334.462 201.399 351.114 137.474 354.724 112.861C357.472 94.1212 357.818 71.3208 355.476 63.2571C353.48 56.3894 351.893 54.7832 351.143 58.8736ZM1095.6 61.4189C1095.34 62.2769 1094.78 68.021 1094.36 74.1853C1093.43 87.887 1089.3 106.706 1080.98 135.033C1056.4 218.804 1053.97 228.283 1050.68 253.534C1048.5 270.253 1048.14 286.115 1049.96 284.99C1052.02 283.717 1075.75 209.085 1084.32 176.935C1098.75 122.768 1103.88 91.879 1101.25 74.9323C1099.35 62.7084 1096.96 56.993 1095.6 61.4189ZM1568.05 120.032C1569.27 129.807 1572.19 149.307 1574.54 163.368C1576.89 177.429 1578.81 189.426 1578.81 190.03C1578.81 190.632 1576.15 190.808 1572.89 190.419C1537.35 186.176 1530.17 185.145 1530.17 184.275C1530.17 183.721 1532.4 178.843 1535.12 173.436C1545.09 153.597 1557.46 125.028 1560.92 113.815C1562.87 107.481 1564.78 102.29 1565.15 102.28C1565.52 102.27 1566.83 110.257 1568.05 120.032ZM1273.88 186.233C1268.39 188.463 1252.82 195.292 1239.26 201.41L1214.63 212.534L1222.49 215.081C1237.92 220.083 1243.34 224.422 1278.87 260.234C1312.91 294.549 1323.23 303.805 1334.84 310.426C1343.48 315.355 1354.21 319.472 1355.82 318.474C1356.58 318.007 1353.48 314.144 1348.55 309.415C1343.82 304.881 1335.04 295.482 1329.04 288.529C1319.32 277.257 1310.06 268.445 1279.01 240.929C1269.41 232.422 1248.66 218.002 1242.84 215.794C1240.86 215.044 1239.51 214.154 1239.85 213.819C1240.18 213.483 1247.42 209.235 1255.92 204.377C1272.21 195.078 1283.8 186.892 1284.96 183.876C1285.89 181.452 1285.38 181.561 1273.88 186.233ZM128.349 207.924C127.32 208.316 114.973 215.115 100.911 223.032C86.8488 230.951 66.364 241.446 55.3888 246.353C27.5331 258.809 24.9627 260.224 24.3104 263.462C21.7949 275.929 23.0495 291.948 27.467 303.751C30.0549 310.668 37.765 321.748 39.9899 321.748C40.7769 321.748 40.9328 320.862 40.3741 319.565C34.97 307.002 29.4463 273.511 31.4568 265.499C32.104 262.92 36.5964 259.394 39.2341 259.394C39.5447 259.394 39.844 265.427 39.8976 272.8C39.9924 285.779 40.0498 286.048 41.6948 281.218C42.629 278.474 44.5982 271.642 46.0724 266.036L48.7514 255.843L63.1887 250.548C80.1328 244.334 97.2391 235.774 109.923 227.163C119.491 220.667 130.843 210.423 130.843 208.284C130.843 207.587 130.703 207.061 130.531 207.115C130.359 207.168 129.378 207.534 128.349 207.924ZM1446.61 214.356C1428.68 220.153 1418.92 228.593 1414.81 241.861C1413.92 244.727 1414.22 244.636 1419.95 240.316C1423.3 237.793 1432.77 231.695 1441 226.765C1449.23 221.835 1457.25 217.034 1458.81 216.095C1460.38 215.157 1461.33 213.853 1460.92 213.197C1459.82 211.418 1454.32 211.865 1446.61 214.356ZM1167.25 223.831C1167.25 224.162 1170.19 225.913 1173.79 227.721C1177.4 229.531 1180.47 231.122 1180.64 231.259C1180.8 231.397 1180.15 235.678 1179.19 240.775C1176.62 254.456 1174.31 285.658 1175.76 287.108C1177.17 288.526 1179.64 282.25 1187.26 257.835C1190.2 248.404 1193.03 240.687 1193.54 240.687C1195.95 240.687 1211.36 255.246 1230.84 275.924C1260.71 307.631 1273.42 317.928 1295.85 328.577C1310.94 335.745 1320.68 338.106 1338.27 338.855C1354.54 339.55 1367.43 337.738 1376.15 333.528C1379.7 331.817 1379.43 331.758 1371.08 332.4C1354.4 333.682 1329.03 329.228 1308.99 321.502C1291.28 314.676 1278.98 305.225 1250.18 276.312C1222.46 248.475 1208.3 236.781 1194.06 229.949C1184.22 225.23 1167.25 221.356 1167.25 223.831ZM290.566 251.064C289.961 252.656 289.072 259.531 288.591 266.341C287.613 280.179 289.323 294.864 293.083 304.911C295.415 311.146 305.743 324.284 307.204 322.875C307.628 322.466 306.609 318.503 304.939 314.067C300.847 303.195 298.308 290.31 296.736 272.427C295.028 252.979 294.254 248.17 292.835 248.17C292.193 248.17 291.171 249.472 290.566 251.064ZM718.983 249.261C717.173 252.189 715.882 277.271 717.062 286.6C718.892 301.062 721.369 307.93 727.603 315.824C733.104 322.79 736.892 325.298 735.136 320.813C730.725 309.541 728.037 298.502 726.392 284.893C722.979 256.636 721.978 250.139 720.872 249.033C720.264 248.424 719.439 248.524 718.983 249.261ZM1035.07 251.862C1032.84 256.04 1031.97 279.453 1033.65 290.23C1034.43 295.187 1036.2 302.297 1037.6 306.028C1040.1 312.726 1049.03 324.332 1050.54 322.86C1050.97 322.442 1050.24 319.585 1048.93 316.513C1045.64 308.842 1044.15 300.938 1041.36 276.229C1040.04 264.569 1038.45 253.647 1037.82 251.957L1036.66 248.886L1035.07 251.862ZM1161.75 254.217C1160.2 256.725 1158.41 282.616 1159.24 290.571C1160.97 307.229 1165.23 316.289 1173.28 320.446C1177.36 322.555 1177.61 321.69 1174.77 315.274C1170.96 306.654 1168.77 295.487 1166.79 274.537C1165.1 256.666 1163.71 251.047 1161.75 254.217ZM1625.61 264.563C1626.96 272.55 1633.07 289.684 1637.59 298.167C1644.06 310.305 1651.49 317.659 1662.83 323.138C1668.26 325.766 1673.25 327.575 1673.92 327.161C1674.59 326.747 1670.94 322.582 1665.82 317.906C1654.79 307.843 1644.14 292.756 1634.41 273.423C1626.96 258.595 1624.12 255.745 1625.61 264.563ZM574.096 273.28C565.383 283.042 542.793 295.865 526.213 300.459C515.421 303.449 491.615 304.004 475.69 301.636C459.94 299.293 461.639 302.77 479.139 308.697C493.605 313.597 510.879 313.589 526.198 308.677C547.809 301.746 566.306 289.876 574.854 277.453C576.903 274.475 578.579 271.719 578.579 271.328C578.579 269.783 576.349 270.753 574.096 273.28ZM1325.64 319.053C1325.64 321.623 1340.16 326.573 1352.13 328.086C1363.23 329.489 1376.47 327.769 1380.65 324.382C1383.09 322.405 1382.2 322.289 1364.1 322.24C1350.82 322.204 1342.18 321.55 1335.85 320.098C1325.22 317.661 1325.64 317.705 1325.64 319.053Z" fill="#BDA17E"/>
</svg>
