<svg width="179" height="146" viewBox="0 0 179 146" fill="none" xmlns="http://www.w3.org/2000/svg">
<path d="M11.5 64.5V14H59.5M2 103L12.75 94.5M59.5 26.5H23.5V49M59.5 26.5H104.5M59.5 26.5C59.5 30.4469 58.2362 33.7496 56.1437 36.5M104.5 26.5L116 14.25M104.5 26.5H177M127.5 2L116 14.25M116 14.25H163M12.75 94.5L23.5 86V49M12.75 94.5V135M23.5 49C25.9385 48.9323 28.8725 48.6732 32 48.159M56.1437 36.5H159.5M56.1437 36.5C53.6768 39.7425 50.0579 42.2174 46 44.075M32 48.159V144.5M32 48.159C36.5677 47.4081 41.5481 46.113 46 44.075M46 44.075V125.5" stroke="#353130" stroke-width="3" stroke-linecap="round"/>
</svg>
