<svg width="52" height="50" viewBox="0 0 52 50" fill="none" xmlns="http://www.w3.org/2000/svg">
<path d="M24 1C11.2975 1 1 11.2975 1 24C1 30.4531 3.65759 36.2855 7.938 40.4625L16.5708 35.6665C16.8313 34.5946 16.9779 32.7251 16.9977 31.7179C16.797 31.5419 16.5135 31.2918 16.1407 30.7059C15.6856 29.9908 15.0617 28.739 14.0916 26.3249C13.8237 26.1316 13.4815 25.8429 13.1857 25.5036C12.8547 25.1241 12.5 24.5892 12.5 24V20.5C12.5 20.06 12.6999 19.5693 12.9096 19.1793C13.0836 18.8556 13.2968 18.5421 13.5 18.3054L13.4999 18.3007C13.499 15.8661 13.4979 12.8368 14.7018 10.4033C15.3298 9.134 16.2855 8.02212 17.7254 7.23336C19.159 6.44804 21.0413 6 23.5 6C25.9688 6 27.8298 6.51461 29.2222 7.38908C30.618 8.26571 31.5036 9.47929 32.061 10.8064C33.0423 13.1427 33.0197 15.8855 33.0037 17.8361C33.0024 17.9974 33.0011 18.1533 33.0005 18.3031C33.1742 18.4993 33.3792 18.7674 33.5573 19.0737C33.7848 19.4651 34 19.9724 34 20.5V24C34 24.0636 33.9879 24.1266 33.9642 24.1857C33.7882 24.6257 33.4721 25.2861 33.0869 25.8459C32.8949 26.125 32.6726 26.3986 32.4271 26.6074C32.2634 26.7467 32.0624 26.88 31.8319 26.9498C31.5704 27.4533 31.1904 28.129 30.7797 28.7506C30.5418 29.1106 30.2879 29.4613 30.0357 29.7524C29.8251 29.9955 29.588 30.2302 29.3385 30.3832C28.3524 31.7347 26.5 35.1243 26.5 38.5C26.5 41.9986 27.8028 45.4876 28.4472 46.7764C28.5707 47.0234 28.4706 47.3237 28.2236 47.4472C27.9766 47.5707 27.6763 47.4706 27.5528 47.2236C26.8639 45.8458 25.5 42.2014 25.5 38.5C25.5 34.7472 27.5682 31.0757 28.6 29.7C28.6466 29.6379 28.707 29.5875 28.7764 29.5528C28.8849 29.4985 29.057 29.3549 29.2799 29.0976C29.4933 28.8512 29.7207 28.5394 29.9453 28.1994C30.3943 27.5198 30.8095 26.7629 31.0528 26.2764C31.1375 26.107 31.3106 26 31.5 26C31.5279 26 31.6193 25.9817 31.7791 25.8457C31.9316 25.716 32.0968 25.5208 32.2631 25.2791C32.5708 24.8318 32.8375 24.2916 33 23.9018V20.5C33 20.2276 32.8818 19.9016 32.6927 19.5763C32.5078 19.2582 32.285 18.9921 32.1464 18.8536C32.0527 18.7598 32 18.6326 32 18.5C32 18.284 32.0016 18.0588 32.0032 17.826L32.0032 17.8242C32.0169 15.85 32.0345 13.3257 31.139 11.1936C30.6464 10.0207 29.882 8.98429 28.6903 8.23592C27.4952 7.48539 25.8312 7 23.5 7C21.1587 7 19.4535 7.42696 18.2058 8.11039C16.9645 8.79038 16.1452 9.741 15.5982 10.8467C14.4996 13.0672 14.4998 15.8929 14.5 18.4016L14.5 18.5C14.5 18.6326 14.4473 18.7598 14.3536 18.8536C14.1966 19.0105 13.9738 19.3117 13.7904 19.6528C13.6001 20.0068 13.5 20.3162 13.5 20.5V24C13.5 24.2108 13.6453 24.5092 13.9393 24.8464C14.2176 25.1654 14.5571 25.4371 14.7773 25.584C14.8615 25.6401 14.9267 25.7204 14.9642 25.8143C15.9621 28.3089 16.5731 29.5228 16.9843 30.1691C17.2769 30.6288 17.4459 30.7777 17.6346 30.944C17.7028 31.0041 17.7735 31.0664 17.8536 31.1464C17.9473 31.2402 18 31.3674 18 31.5C18 32.514 17.8334 34.903 17.4808 36.1374C17.4443 36.2649 17.3587 36.3727 17.2428 36.4371L8.24282 41.4371C8.23457 41.4417 8.22625 41.446 8.21787 41.4501L8.1042 41.515C7.91541 41.6229 7.67813 41.5968 7.52006 41.4475C2.8895 37.0722 0 30.8735 0 24C0 10.7452 10.7452 0 24 0C37.2548 0 48 10.7452 48 24C48 24.7575 47.9649 25.5068 47.8963 26.2464C47.864 26.5934 47.4818 26.7837 47.1725 26.6231C46.9916 26.5292 46.8838 26.3351 46.9025 26.1321C46.967 25.4301 47 24.7189 47 24C47 11.2975 36.7025 1 24 1Z" fill="#BDA17E"/>
<path d="M46.4032 35.2957C46.5665 35.073 46.5184 34.7601 46.2957 34.5968C46.073 34.4335 45.7601 34.4817 45.5968 34.7044L40.401 41.7896L36.307 38.6054C36.089 38.4358 35.7749 38.4751 35.6053 38.6931C35.4358 38.911 35.4751 39.2252 35.693 39.3947L40.193 42.8947C40.2996 42.9776 40.4353 43.0139 40.569 42.9952C40.7028 42.9766 40.8233 42.9046 40.9032 42.7957L46.4032 35.2957Z" fill="#BDA17E"/>
<path fill-rule="evenodd" clip-rule="evenodd" d="M41 50C47.0751 50 52 45.0751 52 39C52 32.9249 47.0751 28 41 28C34.9249 28 30 32.9249 30 39C30 45.0751 34.9249 50 41 50ZM41 49C46.5229 49 51 44.5229 51 39C51 33.4772 46.5229 29 41 29C35.4772 29 31 33.4772 31 39C31 44.5229 35.4772 49 41 49Z" fill="#BDA17E"/>
</svg>
