<svg width="67" height="88" viewBox="0 0 67 88" fill="none" xmlns="http://www.w3.org/2000/svg">
<path d="M29.9575 36.5103C31.0095 37.617 30.9486 39.3514 29.8215 40.3843L21.4465 48.0591C20.3739 49.042 18.7094 49.042 17.6368 48.0591L13.4493 44.2217C12.3223 43.1888 12.2613 41.4544 13.3133 40.3477C14.3653 39.241 16.1318 39.1811 17.259 40.2141L19.5417 42.306L26.0118 36.3767C27.139 35.3437 28.9055 35.4036 29.9575 36.5103Z" fill="#BDA17E"/>
<path d="M33.5 46.0553C33.5 44.5415 34.7498 43.3143 36.2917 43.3143H47.4583C49.0002 43.3143 50.25 44.5415 50.25 46.0553C50.25 47.5691 49.0002 48.7963 47.4583 48.7963H36.2917C34.7498 48.7963 33.5 47.5691 33.5 46.0553Z" fill="#BDA17E"/>
<path d="M27.9167 63.0495C27.9167 61.5357 29.1665 60.3085 30.7083 60.3085H47.4583C49.0002 60.3085 50.25 61.5357 50.25 63.0495C50.25 64.5633 49.0002 65.7905 47.4583 65.7905H30.7083C29.1665 65.7905 27.9167 64.5633 27.9167 63.0495Z" fill="#BDA17E"/>
<path d="M19.5417 66.8869C21.7002 66.8869 23.45 65.1688 23.45 63.0495C23.45 60.9302 21.7002 59.2121 19.5417 59.2121C17.3832 59.2121 15.6333 60.9302 15.6333 63.0495C15.6333 65.1688 17.3832 66.8869 19.5417 66.8869Z" fill="#BDA17E"/>
<path d="M36.2917 13.7115C36.2917 15.2254 35.0418 16.4525 33.5 16.4525C31.9582 16.4525 30.7083 15.2254 30.7083 13.7115C30.7083 12.1977 31.9582 10.9705 33.5 10.9705C35.0418 10.9705 36.2917 12.1977 36.2917 13.7115Z" fill="#BDA17E"/>
<path fill-rule="evenodd" clip-rule="evenodd" d="M46.7085 8.34209C49.4809 8.66022 51.6041 9.63229 53.1315 11.0031C54.093 11.866 54.766 12.8425 55.2004 13.809C58.8899 14.1528 61.6429 15.3813 63.5885 17.073C65.8451 19.0351 66.8438 21.48 66.9918 23.3689L66.995 23.4146C66.9984 23.4694 67 23.5243 67 23.5791V78.3991C67 82.01 65.2721 84.5018 63.0921 86.0067C61.0432 87.4211 58.6734 87.9294 57.0573 87.9904C57.015 87.992 56.9726 87.9928 56.9302 87.9926C43.7561 87.9008 16.2752 87.7744 11.0037 87.9902C7.34898 88.1395 4.66773 86.5691 2.90971 84.6108C1.22551 82.7344 0.358636 80.4912 0.0502309 78.9168C0.0322378 78.8247 0.0190155 78.7318 0.0106323 78.6384C0.00354411 78.5589 0 78.4791 0 78.3991V23.5791C0 21.4259 0.643528 19.5838 1.78146 18.0974C2.89383 16.6443 4.369 15.6716 5.83994 15.026C7.75226 14.1867 9.8454 13.8161 11.6661 13.7081C12.4851 11.6238 14.1948 10.2631 15.9101 9.47035C17.2334 8.85884 18.6597 8.52023 19.952 8.35521C20.3696 6.98605 21.1418 5.50272 22.4279 4.15926C24.6723 1.81496 28.2229 0.162195 33.4154 0.0077459C41.1015 -0.220983 45.1119 4.66356 46.7085 8.34209ZM11.1667 19.254C10.1271 19.377 9.0507 19.6215 8.11839 20.0307C7.26297 20.4061 6.64438 20.8689 6.24458 21.3911C5.87034 21.8801 5.58333 22.5527 5.58333 23.5791V78.1068C5.78255 78.9106 6.27191 80.0654 7.09844 80.9859C7.93199 81.9147 9.06596 82.5826 10.7713 82.513C16.2098 82.2903 43.8011 82.419 56.898 82.51C57.703 82.4691 58.9275 82.1803 59.8808 81.5223C60.7252 80.9393 61.4167 80.0509 61.4167 78.3991V23.7104C61.35 23.1893 60.9866 22.1331 59.8869 21.177C59.0978 20.4908 57.8318 19.7753 55.8333 19.4208V24.4014C55.8333 25.9153 54.5835 27.1424 53.0417 27.1424H13.9583C12.4165 27.1424 11.1667 25.9153 11.1667 24.4014V19.254ZM50.25 16.5478C50.2219 16.2965 50.0371 15.653 49.3645 15.0494C48.7022 14.455 47.3496 13.7114 44.6667 13.7114C43.3618 13.7114 42.231 12.8239 41.9436 11.5741C41.4522 9.43729 39.0902 5.32338 33.5846 5.4872C29.5646 5.60685 27.5319 6.83213 26.4961 7.91395C25.4006 9.05826 25.125 10.3468 25.125 10.9704C25.125 11.7132 24.818 12.4243 24.2742 12.9406C23.7304 13.4571 22.9964 13.7347 22.2404 13.7099C21.1292 13.6735 19.5107 13.8653 18.2878 14.4304C17.1754 14.9444 16.75 15.5418 16.75 16.4525V21.6604H50.25V16.5478Z" fill="#BDA17E"/>
</svg>
