<svg width="99" height="88" viewBox="0 0 99 88" fill="none" xmlns="http://www.w3.org/2000/svg">
<path d="M49.3613 23.3186C51.8119 23.3186 53.7983 21.33 53.7983 18.877C53.7983 16.4239 51.8119 14.4353 49.3613 14.4353C46.9108 14.4353 44.9244 16.4239 44.9244 18.877C44.9244 21.33 46.9108 23.3186 49.3613 23.3186Z" fill="#BDA17E"/>
<path fill-rule="evenodd" clip-rule="evenodd" d="M28.8403 20.5426C28.8403 9.19721 38.0279 0 49.3613 0C60.6948 0 69.8824 9.19721 69.8824 20.5426C69.8824 27.7884 65.7333 35.487 61.6681 41.3842C57.5185 47.4037 53.0537 52.1094 51.7195 53.4736C50.4201 54.8022 48.3026 54.8022 47.0032 53.4736C45.669 52.1094 41.2042 47.4037 37.0546 41.3842C32.9894 35.487 28.8403 27.7884 28.8403 20.5426ZM49.3613 5.55205C41.091 5.55205 34.3866 12.2636 34.3866 20.5426C34.3866 25.9743 37.6404 32.4586 41.6195 38.2306C44.453 42.3413 47.4594 45.8167 49.3613 47.8902C51.2633 45.8167 54.2696 42.3413 57.1032 38.2308C61.0823 32.4586 64.3361 25.9743 64.3361 20.5426C64.3361 12.2636 57.6317 5.55205 49.3613 5.55205Z" fill="#BDA17E"/>
<path d="M97.7919 22.4149C98.5479 22.9323 99 23.7899 99 24.7066V74.3974C99 75.5379 98.3033 76.5624 97.2433 76.9802L69.7895 87.8067C69.2298 88.0276 68.6136 88.0601 68.0339 87.8994L29.7968 77.3123L3.73801 86.9936C2.88685 87.31 1.93502 87.1891 1.18967 86.6702C0.444402 86.1511 0 85.2998 0 84.3911V35.2555C0 34.1178 0.69348 33.0953 1.74971 32.6755L20.6069 25.1802C22.0303 24.6144 23.6425 25.3109 24.2076 26.7358C24.7728 28.1608 24.077 29.7745 22.6537 30.3404L5.54622 37.1402V80.3998L26.8992 72.4667V52.4669C26.8992 50.9337 28.1407 49.6908 29.6723 49.6908C31.2038 49.6908 32.4454 50.9337 32.4454 52.4669V72.2851L66 81.5758V52.4669C66 50.9337 67.2415 49.6908 68.7731 49.6908C70.3047 49.6908 71.5462 50.9337 71.5462 52.4669V81.1466L93.4538 72.5074V28.7675L75.8807 35.6213C74.4536 36.1779 72.846 35.471 72.29 34.0425C71.734 32.6139 72.4402 31.0046 73.8672 30.448L95.2202 22.1199C96.0735 21.7872 97.0359 21.8975 97.7919 22.4149Z" fill="#BDA17E"/>
</svg>
